<?xml version="1.0" encoding="UTF-8"?>
<svg id="Layer_1" data-name="Layer 1" xmlns="http://www.w3.org/2000/svg" viewBox="0 0 298.59 402.58">
  <defs>
    <style>
      .cls-1 {
        fill: #fefefe;
      }
    </style>
  </defs>
  <path class="cls-1" d="M102.7,230.12c-2.94,28.06,2.07,56.29,21.22,77.79,8.24,9.25,17.69,16.57,29.09,20.94,33.29,12.75,73.39,5.62,95.53-24.19,5.38,5.32,10.27,10.6,15.74,16.17l34.31,34.91c-27.59,29.5-64.96,44.92-104.73,46.63-36.26,1.56-72.12-5.16-102.24-25.89-1.6-1.14-1.44-.97-1.44-1.39l-.14-261.42c22.63-16.43,51.68-25.54,81.14-27.13,8.37-.45,13.78-.32,23.98.21,34.43,1.34,66.69,14.04,92.71,36.32,3.4,2.91,6.26,5.35,9.9,8.6l-43.72,43.91c-2.16,2.17-3.84,3.98-6.2,6.65-4.56-5.33-6.04-6.4-9.22-9.33-17.34-16.01-42.21-21.07-65.53-18.2-39.08,4.81-66.38,37.19-70.39,75.45Z"/>
  <path class="cls-1" d="M43.07,164.72c-25.89,45.91-25.7,115.24.59,161.45,11.33,19.48,25.97,35.82,44.13,48.98l-84.21.08V114.19s84.38.11,84.38.11l-13.5,10.87c-12.61,11.36-22.91,24.53-31.39,39.55Z"/>
  <circle class="cls-1" cx="46.07" cy="46.07" r="46.07"/>
</svg>