<?xml version="1.0" encoding="utf-8"?>
<!-- Generator: Adobe Illustrator 23.0.5, SVG Export Plug-In . SVG Version: 6.00 Build 0)  -->
<svg version="1.1" xmlns="http://www.w3.org/2000/svg" xmlns:xlink="http://www.w3.org/1999/xlink" x="0px" y="0px"
	 viewBox="0 0 2000 2000" style="enable-background:new 0 0 2000 2000;" xml:space="preserve">
<style type="text/css">
	.st0{fill-rule:evenodd;clip-rule:evenodd;fill:#132620;}
	.st1{fill-rule:evenodd;clip-rule:evenodd;fill:#D6AD61;}
</style>
<g id="Background">
	<rect x="0" class="st0" width="2000" height="2000"/>
</g>
<g id="Pattern">
	<path class="st1" d="M169,0v361.4h-4.6c0-37.3-12.4-71.7-33.3-99.3c-21.4-28.2-51.7-49.3-86.8-59.1c-7.1-2-14.4-3.5-21.9-4.5
		c-7.3-1-14.8-1.5-22.4-1.5v-4.6c7.8,0,15.4,0.5,23,1.6c7.7,1,15.2,2.6,22.5,4.6c36,10,67.2,31.7,89.2,60.7
		c13.9,18.3,24.2,39.6,29.7,62.7V0H169z"/>
	<rect x="20.4" y="90.8" class="st1" width="4.6" height="105.5"/>
	<path class="st1" d="M70.4,45.4v163.9h-4.6V45.4H70.4L70.4,45.4z M20.4,196.3V90.8H25v105.5H20.4z"/>
	<path class="st1" d="M115.8,0v239.4h-4.6V0H115.8L115.8,0z M65.8,209.3V45.4h4.6v163.9H65.8z"/>
	<polygon class="st1" points="116.8,0 115.2,1.6 1.6,115.2 0,116.8 0,110.3 110.3,0 	"/>
	<path class="st1" d="M502.3,0v361.4h-4.6c0-37.3-12.4-71.7-33.3-99.3c-21.4-28.2-51.7-49.3-86.8-59.1c-7.1-2-14.4-3.5-21.9-4.5
		c-7.3-1-14.8-1.5-22.4-1.5c-7.6,0-15.1,0.5-22.4,1.5c-7.5,1-14.8,2.5-21.9,4.5c-35,9.8-65.4,30.9-86.8,59.1
		c-20.9,27.6-33.3,62-33.3,99.3h-4.6V0h4.6v322.1c5.5-23.1,15.8-44.4,29.7-62.7c22-29,53.2-50.7,89.2-60.7c7.3-2,14.8-3.6,22.5-4.6
		c7.6-1,15.2-1.6,23-1.6c7.8,0,15.4,0.5,23,1.6c7.7,1,15.2,2.6,22.5,4.6c36,10,67.2,31.7,89.2,60.7c13.9,18.3,24.2,39.6,29.7,62.7V0
		H502.3z"/>
	<path class="st1" d="M217.5,0h4.6v239.4h-4.6V0L217.5,0z M267.5,45.4v163.9h-4.6V45.4H267.5z"/>
	<path class="st1" d="M312.9,90.8v105.5h-4.6V90.8H312.9L312.9,90.8z M262.9,209.3V45.4h4.6v163.9H262.9z"/>
	<path class="st1" d="M358.3,90.8v105.5h-4.6V90.8H358.3L358.3,90.8z M308.3,196.3V90.8h4.6v105.5H308.3z"/>
	<path class="st1" d="M403.8,45.4v163.9h-4.6V45.4H403.8L403.8,45.4z M353.7,196.3V90.8h4.6v105.5H353.7z"/>
	<path class="st1" d="M449.2,0v239.4h-4.6V0H449.2L449.2,0z M399.1,209.3V45.4h4.6v163.9H399.1z"/>
	<polygon class="st1" points="450.1,0 448.5,1.6 335,115.2 333.3,116.8 331.7,115.2 218.2,1.6 216.6,0 223.1,0 333.3,110.3 443.6,0 
			"/>
	<path class="st1" d="M835.6,0v361.4H831c0-37.3-12.4-71.7-33.3-99.3c-21.4-28.2-51.7-49.3-86.8-59.1c-7.1-2-14.4-3.5-21.9-4.5
		c-7.3-1-14.8-1.5-22.4-1.5c-7.6,0-15.1,0.5-22.4,1.5c-7.5,1-14.8,2.5-21.9,4.5c-35,9.8-65.4,30.9-86.8,59.1
		c-20.9,27.6-33.3,62-33.3,99.3h-4.6V0h4.6v322.1c5.5-23.1,15.8-44.4,29.7-62.7c22-29,53.2-50.7,89.2-60.7c7.3-2,14.8-3.6,22.5-4.6
		c7.6-1,15.2-1.6,23-1.6c7.8,0,15.4,0.5,23,1.6c7.7,1,15.2,2.6,22.5,4.6c36,10,67.2,31.7,89.2,60.7c13.9,18.3,24.2,39.6,29.7,62.7V0
		H835.6z"/>
	<path class="st1" d="M550.8,0h4.6v239.4h-4.6V0L550.8,0z M600.9,45.4v163.9h-4.6V45.4H600.9z"/>
	<path class="st1" d="M646.3,90.8v105.5h-4.6V90.8H646.3L646.3,90.8z M596.2,209.3V45.4h4.6v163.9H596.2z"/>
	<path class="st1" d="M691.7,90.8v105.5h-4.6V90.8H691.7L691.7,90.8z M641.7,196.3V90.8h4.6v105.5H641.7z"/>
	<path class="st1" d="M737.1,45.4v163.9h-4.6V45.4H737.1L737.1,45.4z M687.1,196.3V90.8h4.6v105.5H687.1z"/>
	<path class="st1" d="M782.5,0v239.4h-4.6V0H782.5L782.5,0z M732.5,209.3V45.4h4.6v163.9H732.5z"/>
	<polygon class="st1" points="783.4,0 781.8,1.6 668.3,115.2 666.7,116.8 665,115.2 551.5,1.6 549.9,0 556.4,0 666.7,110.3 776.9,0 
			"/>
	<path class="st1" d="M1169,0v361.4h-4.6c0-37.3-12.4-71.7-33.3-99.3c-21.4-28.2-51.7-49.3-86.8-59.1c-7.1-2-14.4-3.5-21.9-4.5
		c-7.3-1-14.8-1.5-22.4-1.5c-7.6,0-15.1,0.5-22.4,1.5c-7.5,1-14.8,2.5-21.9,4.5c-35,9.8-65.4,30.9-86.8,59.1
		c-20.9,27.6-33.3,62-33.3,99.3H831V0h4.6v322.1c5.5-23.1,15.8-44.4,29.7-62.7c22-29,53.2-50.7,89.2-60.7c7.3-2,14.8-3.6,22.5-4.6
		c7.5-1,15.2-1.6,23-1.6s15.4,0.5,23,1.6c7.7,1,15.2,2.6,22.5,4.6c36,10,67.2,31.7,89.2,60.7c13.9,18.3,24.2,39.6,29.7,62.7V0H1169z
		"/>
	<path class="st1" d="M884.2,0h4.6v239.4h-4.6V0L884.2,0z M934.2,45.4v163.9h-4.6V45.4H934.2z"/>
	<path class="st1" d="M979.6,90.8v105.5H975V90.8H979.6L979.6,90.8z M929.6,209.3V45.4h4.6v163.9H929.6z"/>
	<path class="st1" d="M1025,90.8v105.5h-4.6V90.8H1025L1025,90.8z M975,196.3V90.8h4.6v105.5H975z"/>
	<path class="st1" d="M1070.4,45.4v163.9h-4.6V45.4H1070.4L1070.4,45.4z M1020.4,196.3V90.8h4.6v105.5H1020.4z"/>
	<path class="st1" d="M1115.8,0v239.4h-4.6V0H1115.8L1115.8,0z M1065.8,209.3V45.4h4.6v163.9H1065.8z"/>
	<polygon class="st1" points="1116.8,0 1115.2,1.6 1001.6,115.2 1000,116.8 998.4,115.2 884.8,1.6 883.2,0 889.7,0 1000,110.3 
		1110.3,0 	"/>
	<path class="st1" d="M1502.3,0v361.4h-4.6c0-37.3-12.4-71.7-33.3-99.3c-21.4-28.2-51.7-49.3-86.8-59.1c-7.1-2-14.4-3.5-21.9-4.5
		c-7.3-1-14.8-1.5-22.4-1.5c-7.6,0-15.1,0.5-22.4,1.5c-7.5,1-14.8,2.5-21.9,4.5c-35,9.8-65.4,30.9-86.8,59.1
		c-20.9,27.6-33.3,62-33.3,99.3h-4.6V0h4.6v322.1c5.5-23.1,15.8-44.4,29.7-62.7c22-29,53.2-50.7,89.2-60.7c7.3-2,14.8-3.6,22.5-4.6
		c7.6-1,15.2-1.6,23-1.6c7.8,0,15.4,0.5,23,1.6c7.7,1,15.2,2.6,22.5,4.6c36,10,67.2,31.7,89.2,60.7c13.9,18.3,24.2,39.6,29.7,62.7V0
		H1502.3z"/>
	<path class="st1" d="M1217.5,0h4.6v239.4h-4.6V0L1217.5,0z M1267.5,45.4v163.9h-4.6V45.4H1267.5z"/>
	<path class="st1" d="M1312.9,90.8v105.5h-4.6V90.8H1312.9L1312.9,90.8z M1262.9,209.3V45.4h4.6v163.9H1262.9z"/>
	<path class="st1" d="M1358.3,90.8v105.5h-4.6V90.8H1358.3L1358.3,90.8z M1308.3,196.3V90.8h4.6v105.5H1308.3z"/>
	<path class="st1" d="M1403.8,45.4v163.9h-4.6V45.4H1403.8L1403.8,45.4z M1353.7,196.3V90.8h4.6v105.5H1353.7z"/>
	<path class="st1" d="M1449.2,0v239.4h-4.6V0H1449.2L1449.2,0z M1399.1,209.3V45.4h4.6v163.9H1399.1z"/>
	<polygon class="st1" points="1450.1,0 1448.5,1.6 1335,115.2 1333.3,116.8 1331.7,115.2 1218.2,1.6 1216.6,0 1223.1,0 
		1333.3,110.3 1443.6,0 	"/>
	<path class="st1" d="M1835.6,0v361.4h-4.6c0-37.3-12.4-71.7-33.3-99.3c-21.4-28.2-51.7-49.3-86.8-59.1c-7.1-2-14.4-3.5-21.9-4.5
		c-7.3-1-14.8-1.5-22.4-1.5c-7.6,0-15.1,0.5-22.4,1.5c-7.5,1-14.8,2.5-21.9,4.5c-35,9.8-65.4,30.9-86.8,59.1
		c-20.9,27.6-33.3,62-33.3,99.3h-4.6V0h4.6v322.1c5.5-23.1,15.8-44.4,29.7-62.7c22-29,53.2-50.7,89.2-60.7c7.3-2,14.8-3.6,22.5-4.6
		c7.6-1,15.2-1.6,23-1.6c7.8,0,15.4,0.5,23,1.6c7.7,1,15.2,2.6,22.5,4.6c36,10,67.2,31.7,89.2,60.7c13.9,18.3,24.2,39.6,29.7,62.7V0
		H1835.6z"/>
	<path class="st1" d="M1550.8,0h4.6v239.4h-4.6V0L1550.8,0z M1600.9,45.4v163.9h-4.6V45.4H1600.9z"/>
	<path class="st1" d="M1646.3,90.8v105.5h-4.6V90.8H1646.3L1646.3,90.8z M1596.2,209.3V45.4h4.6v163.9H1596.2z"/>
	<path class="st1" d="M1691.7,90.8v105.5h-4.6V90.8H1691.7L1691.7,90.8z M1641.7,196.3V90.8h4.6v105.5H1641.7z"/>
	<path class="st1" d="M1737.1,45.4v163.9h-4.6V45.4H1737.1L1737.1,45.4z M1687.1,196.3V90.8h4.6v105.5H1687.1z"/>
	<path class="st1" d="M1782.5,0v239.4h-4.6V0H1782.5L1782.5,0z M1732.5,209.3V45.4h4.6v163.9H1732.5z"/>
	<polygon class="st1" points="1783.4,0 1781.8,1.6 1668.3,115.2 1666.7,116.8 1665,115.2 1551.5,1.6 1549.9,0 1556.4,0 
		1666.7,110.3 1776.9,0 	"/>
	<path class="st1" d="M2000,197.1c-7.6,0-15.1,0.5-22.4,1.5c-7.5,1-14.8,2.5-21.9,4.5c-35,9.8-65.4,30.9-86.8,59.1
		c-20.9,27.6-33.3,62-33.3,99.3h-4.6V0h4.6v322.1c5.5-23.1,15.8-44.4,29.7-62.7c22-29,53.2-50.7,89.2-60.7c7.3-2,14.8-3.6,22.5-4.6
		c7.5-1,15.2-1.6,23-1.6V197.1z"/>
	<path class="st1" d="M1884.2,0h4.6v239.4h-4.6V0L1884.2,0z M1934.2,45.4v163.9h-4.6V45.4H1934.2z"/>
	<path class="st1" d="M1979.6,90.8v105.5h-4.6V90.8H1979.6L1979.6,90.8z M1929.6,209.3V45.4h4.6v163.9H1929.6z"/>
	<rect x="1975" y="90.8" class="st1" width="4.6" height="105.5"/>
	<polygon class="st1" points="2000,116.8 1998.4,115.2 1884.8,1.6 1883.2,0 1889.7,0 2000,110.3 	"/>
	<path class="st1" d="M0,192.5c46.7,0,88.9,18.9,119.5,49.5c30.6,30.6,49.5,72.8,49.5,119.5v669.1h-4.6c0-37.3-12.4-71.7-33.3-99.3
		c-21.4-28.2-51.7-49.3-86.8-59.1c-7.1-2-14.4-3.5-21.9-4.5c-7.3-1-14.8-1.5-22.4-1.5v-4.6c7.8,0,15.4,0.5,23,1.6
		c7.7,1,15.2,2.6,22.5,4.6c36,10,67.2,31.7,89.2,60.7c13.9,18.3,24.2,39.6,29.7,62.7V361.4c0-45.4-18.4-86.5-48.1-116.2
		C86.5,215.5,45.4,197.1,0,197.1V192.5z"/>
	<path class="st1" d="M45.8,255c20.9,9,38.6,24,51,42.8c12,18.3,19,40.1,19,63.6c0,32-13,60.9-33.9,81.9c-21,21-49.9,33.9-81.9,33.9
		v-4.6c30.7,0,58.5-12.5,78.6-32.6c20.1-20.1,32.6-47.9,32.6-78.6c0-22.6-6.7-43.6-18.2-61.1c-11.9-18.1-28.9-32.5-49-41.1L45.8,255
		z"/>
	<rect x="0" y="359.1" class="st1" width="166.7" height="4.6"/>
	<polygon class="st1" points="2.3,194.8 2.3,361.4 2.3,363.7 0,363.7 0,194.8 	"/>
	<polygon class="st1" points="47.2,200.9 47.2,361.4 47.2,363.7 44.9,363.7 0,363.7 0,194.8 2.3,194.8 2.3,359.1 42.6,359.1 
		42.6,200.9 	"/>
	<path class="st1" d="M25,472.7v105.6h-4.6V472.7H25L25,472.7z M0,363.7v-4.6h22.7v4.6H0L0,363.7z M25,760v105.5h-4.6V760H25z"/>
	<path class="st1" d="M70.4,452.3v171.5h-4.6V452.3H70.4L70.4,452.3z M70.4,714.6v163.9h-4.6V714.6H70.4L70.4,714.6z M20.4,865.4
		V760H25v105.5H20.4L20.4,865.4z M20.4,578.3V472.7H25v105.6H20.4L20.4,578.3z M22.7,359.1h45.4v4.6H22.7V359.1z"/>
	<path class="st1" d="M68.1,359.1h45.4h2.3v2.3v547.1h-4.6V363.7H68.1V359.1L68.1,359.1z M65.8,878.4h4.6V714.6h-4.6V878.4
		L65.8,878.4z M65.8,623.7h4.6V452.3h-4.6V623.7z"/>
	<polygon class="st1" points="0,552.4 1.6,554 115.2,667.5 116.8,669.1 115.2,670.8 1.6,784.3 0,785.9 0,779.4 110.3,669.1 0,558.9 
			"/>
	<path class="st1" d="M333.3,192.5c46.7,0,88.9,18.9,119.5,49.5c30.6,30.6,49.5,72.8,49.5,119.5v669.1h-4.6
		c0-37.3-12.4-71.7-33.3-99.3c-21.4-28.2-51.7-49.3-86.8-59.1c-7.1-2-14.4-3.5-21.9-4.5c-7.3-1-14.8-1.5-22.4-1.5
		c-7.6,0-15.1,0.5-22.4,1.5c-7.5,1-14.8,2.5-21.9,4.5c-35,9.8-65.4,30.9-86.8,59.1c-20.9,27.6-33.3,62-33.3,99.3h-4.6V361.4
		c0-46.7,18.9-88.9,49.5-119.5C244.4,211.4,286.7,192.5,333.3,192.5L333.3,192.5z M449.6,245.2c-29.7-29.7-70.8-48.1-116.2-48.1
		c-45.4,0-86.5,18.4-116.2,48.1C187.4,274.9,169,316,169,361.4v629.8c5.5-23.1,15.8-44.4,29.7-62.7c22-29,53.2-50.7,89.2-60.7
		c7.3-2,14.8-3.6,22.5-4.6c7.6-1,15.2-1.6,23-1.6c7.8,0,15.4,0.5,23,1.6c7.7,1,15.2,2.6,22.5,4.6c36,10,67.2,31.7,89.2,60.7
		c13.9,18.3,24.2,39.6,29.7,62.7V361.4C497.7,316,479.3,274.9,449.6,245.2z"/>
	<path class="st1" d="M379.1,255c20.9,9,38.6,24,51,42.8c12,18.3,19,40.1,19,63.6c0,32-13,60.9-33.9,81.9
		c-21,21-49.9,33.9-81.9,33.9c-32,0-60.9-13-81.9-33.9c-21-21-33.9-49.9-33.9-81.9c0-23.5,7-45.3,19-63.6
		c12.4-18.8,30.1-33.8,51-42.8l1.8,4.2c-20.1,8.7-37.1,23.1-49,41.1c-11.5,17.5-18.2,38.5-18.2,61.1c0,30.7,12.4,58.5,32.6,78.6
		c20.1,20.1,47.9,32.6,78.6,32.6s58.5-12.5,78.6-32.6c20.1-20.1,32.6-47.9,32.6-78.6c0-22.6-6.7-43.6-18.2-61.1
		c-11.9-18.1-28.9-32.5-49-41.1L379.1,255z"/>
	<rect x="166.7" y="359.1" class="st1" width="333.3" height="4.6"/>
	<polygon class="st1" points="335.6,194.8 335.6,361.4 335.6,363.7 333.3,363.7 288.5,363.7 286.2,363.7 286.2,361.4 286.2,200.9 
		290.8,200.9 290.8,359.1 331,359.1 331,194.8 	"/>
	<polygon class="st1" points="380.5,200.9 380.5,361.4 380.5,363.7 378.2,363.7 333.3,363.7 331,363.7 331,361.4 331,194.8 
		335.6,194.8 335.6,359.1 375.9,359.1 375.9,200.9 	"/>
	<path class="st1" d="M267.5,452.3v171.5h-4.6V452.3H267.5L267.5,452.3z M267.5,714.6v163.9h-4.6V714.6H267.5L267.5,714.6z
		 M217.5,908.5h4.6V363.7h43.1v-4.6h-45.4h-2.3v2.3V908.5z"/>
	<path class="st1" d="M312.9,472.7v105.6h-4.6V472.7H312.9L312.9,472.7z M312.9,760v105.5h-4.6V760H312.9L312.9,760z M262.9,878.4
		V714.6h4.6v163.9H262.9L262.9,878.4z M262.9,623.7V452.3h4.6v171.5H262.9L262.9,623.7z M265.2,359.1h45.4v4.6h-45.4V359.1z"/>
	<path class="st1" d="M358.3,472.7v105.6h-4.6V472.7H358.3L358.3,472.7z M358.3,760v105.5h-4.6V760H358.3L358.3,760z M308.3,865.4
		V760h4.6v105.5H308.3L308.3,865.4z M308.3,578.3V472.7h4.6v105.6H308.3L308.3,578.3z M310.6,359.1H356v4.6h-45.4V359.1z"/>
	<path class="st1" d="M403.8,452.3v171.5h-4.6V452.3H403.8L403.8,452.3z M403.8,714.6v163.9h-4.6V714.6H403.8L403.8,714.6z
		 M353.7,865.4V760h4.6v105.5H353.7L353.7,865.4z M353.7,578.3V472.7h4.6v105.6H353.7L353.7,578.3z M356,359.1h45.4v4.6H356V359.1z"
		/>
	<path class="st1" d="M401.4,359.1h45.4h2.3v2.3v547.1h-4.6V363.7h-43.1V359.1L401.4,359.1z M399.1,878.4h4.6V714.6h-4.6V878.4
		L399.1,878.4z M399.1,623.7h4.6V452.3h-4.6V623.7z"/>
	<path class="st1" d="M218.2,667.5L331.7,554l1.6-1.6l1.6,1.6l113.5,113.5l1.6,1.6l-1.6,1.6L335,784.3l-1.6,1.6l-1.6-1.6
		L218.2,670.8l-1.6-1.6L218.2,667.5L218.2,667.5z M333.3,558.9L223.1,669.1l110.3,110.3l110.3-110.3L333.3,558.9z"/>
	<path class="st1" d="M666.7,192.5c46.7,0,88.9,18.9,119.5,49.5c30.6,30.6,49.5,72.8,49.5,119.5v669.1H831
		c0-37.3-12.4-71.7-33.3-99.3c-21.4-28.2-51.7-49.3-86.8-59.1c-7.1-2-14.4-3.5-21.9-4.5c-7.3-1-14.8-1.5-22.4-1.5
		c-7.6,0-15.1,0.5-22.4,1.5c-7.5,1-14.8,2.5-21.9,4.5c-35,9.8-65.4,30.9-86.8,59.1c-20.9,27.6-33.3,62-33.3,99.3h-4.6V361.4
		c0-46.7,18.9-88.9,49.5-119.5C577.8,211.4,620,192.5,666.7,192.5L666.7,192.5z M782.9,245.2c-29.7-29.7-70.8-48.1-116.2-48.1
		c-45.4,0-86.5,18.4-116.2,48.1c-29.7,29.7-48.1,70.8-48.1,116.2v629.8c5.5-23.1,15.8-44.4,29.7-62.7c22-29,53.2-50.7,89.2-60.7
		c7.3-2,14.8-3.6,22.5-4.6c7.6-1,15.2-1.6,23-1.6c7.8,0,15.4,0.5,23,1.6c7.7,1,15.2,2.6,22.5,4.6c36,10,67.2,31.7,89.2,60.7
		c13.9,18.3,24.2,39.6,29.7,62.7V361.4C831,316,812.6,274.9,782.9,245.2z"/>
	<path class="st1" d="M712.4,255c20.9,9,38.6,24,51,42.8c12,18.3,19,40.1,19,63.6c0,32-13,60.9-33.9,81.9
		c-21,21-49.9,33.9-81.9,33.9c-32,0-60.9-13-81.9-33.9c-21-21-33.9-49.9-33.9-81.9c0-23.5,7-45.3,19-63.6
		c12.4-18.8,30.1-33.8,51-42.8l1.8,4.2c-20.1,8.7-37.1,23.1-49,41.1c-11.5,17.5-18.2,38.5-18.2,61.1c0,30.7,12.5,58.5,32.6,78.6
		c20.1,20.1,47.9,32.6,78.6,32.6s58.5-12.5,78.6-32.6c20.1-20.1,32.6-47.9,32.6-78.6c0-22.6-6.7-43.6-18.2-61.1
		c-11.9-18.1-28.9-32.5-49-41.1L712.4,255z"/>
	<rect x="500" y="359.1" class="st1" width="333.3" height="4.6"/>
	<polygon class="st1" points="669,194.8 669,361.4 669,363.7 666.7,363.7 621.8,363.7 619.5,363.7 619.5,361.4 619.5,200.9 
		624.1,200.9 624.1,359.1 664.4,359.1 664.4,194.8 	"/>
	<polygon class="st1" points="713.8,200.9 713.8,361.4 713.8,363.7 711.5,363.7 666.7,363.7 664.4,363.7 664.4,361.4 664.4,194.8 
		669,194.8 669,359.1 709.2,359.1 709.2,200.9 	"/>
	<path class="st1" d="M600.9,452.3v171.5h-4.6V452.3H600.9L600.9,452.3z M600.9,714.6v163.9h-4.6V714.6H600.9L600.9,714.6z
		 M550.8,908.5h4.6V363.7h43.1v-4.6h-45.4h-2.3v2.3V908.5z"/>
	<path class="st1" d="M646.3,472.7v105.6h-4.6V472.7H646.3L646.3,472.7z M646.3,760v105.5h-4.6V760H646.3L646.3,760z M596.2,878.4
		V714.6h4.6v163.9H596.2L596.2,878.4z M596.2,623.7V452.3h4.6v171.5H596.2L596.2,623.7z M598.6,359.1H644v4.6h-45.4V359.1z"/>
	<path class="st1" d="M691.7,472.7v105.6h-4.6V472.7H691.7L691.7,472.7z M691.7,760v105.5h-4.6V760H691.7L691.7,760z M641.7,865.4
		V760h4.6v105.5H641.7L641.7,865.4z M641.7,578.3V472.7h4.6v105.6H641.7L641.7,578.3z M644,359.1h45.4v4.6H644V359.1z"/>
	<path class="st1" d="M737.1,452.3v171.5h-4.6V452.3H737.1L737.1,452.3z M737.1,714.6v163.9h-4.6V714.6H737.1L737.1,714.6z
		 M687.1,865.4V760h4.6v105.5H687.1L687.1,865.4z M687.1,578.3V472.7h4.6v105.6H687.1L687.1,578.3z M689.4,359.1h45.4v4.6h-45.4
		V359.1z"/>
	<path class="st1" d="M734.8,359.1h45.4h2.3v2.3v547.1h-4.6V363.7h-43.1V359.1L734.8,359.1z M732.5,878.4h4.6V714.6h-4.6V878.4
		L732.5,878.4z M732.5,623.7h4.6V452.3h-4.6V623.7z"/>
	<path class="st1" d="M551.5,667.5L665,554l1.6-1.6l1.6,1.6l113.5,113.5l1.6,1.6l-1.6,1.6L668.3,784.3l-1.6,1.6l-1.6-1.6
		L551.5,670.8l-1.6-1.6L551.5,667.5L551.5,667.5z M666.7,558.9L556.4,669.1l110.3,110.3l110.3-110.3L666.7,558.9z"/>
	<path class="st1" d="M1000,192.5c46.7,0,88.9,18.9,119.5,49.5c30.6,30.6,49.5,72.8,49.5,119.5v669.1h-4.6
		c0-37.3-12.4-71.7-33.3-99.3c-21.4-28.2-51.7-49.3-86.8-59.1c-7.1-2-14.4-3.5-21.9-4.5c-7.3-1-14.8-1.5-22.4-1.5
		c-7.6,0-15.1,0.5-22.4,1.5c-7.5,1-14.8,2.5-21.9,4.5c-35,9.8-65.4,30.9-86.8,59.1c-20.9,27.6-33.3,62-33.3,99.3H831V361.4
		c0-46.7,18.9-88.9,49.5-119.5C911.1,211.4,953.3,192.5,1000,192.5L1000,192.5z M1116.2,245.2c-29.7-29.7-70.8-48.1-116.2-48.1
		s-86.5,18.4-116.2,48.1c-29.7,29.7-48.1,70.8-48.1,116.2v629.8c5.5-23.1,15.8-44.4,29.7-62.7c22-29,53.2-50.7,89.2-60.7
		c7.3-2,14.8-3.6,22.5-4.6c7.5-1,15.2-1.6,23-1.6s15.4,0.5,23,1.6c7.7,1,15.2,2.6,22.5,4.6c36,10,67.2,31.7,89.2,60.7
		c13.9,18.3,24.2,39.6,29.7,62.7V361.4C1164.4,316,1146,274.9,1116.2,245.2z"/>
	<path class="st1" d="M1045.8,255c20.9,9,38.6,24,51,42.8c12,18.3,19,40.1,19,63.6c0,32-13,60.9-33.9,81.9
		c-21,21-49.9,33.9-81.9,33.9c-32,0-60.9-13-81.9-33.9c-21-21-33.9-49.9-33.9-81.9c0-23.5,7-45.3,19-63.6
		c12.4-18.8,30.1-33.8,51-42.8l1.8,4.2c-20.1,8.7-37.1,23.1-49,41.1c-11.5,17.5-18.2,38.5-18.2,61.1c0,30.7,12.4,58.5,32.6,78.6
		c20.1,20.1,47.9,32.6,78.6,32.6s58.5-12.5,78.6-32.6c20.1-20.1,32.6-47.9,32.6-78.6c0-22.6-6.7-43.6-18.2-61.1
		c-11.9-18.1-28.9-32.5-49-41.1L1045.8,255z"/>
	<rect x="833.3" y="359.1" class="st1" width="333.3" height="4.6"/>
	<polygon class="st1" points="1002.3,194.8 1002.3,361.4 1002.3,363.7 1000,363.7 955.1,363.7 952.8,363.7 952.8,361.4 952.8,200.9 
		957.4,200.9 957.4,359.1 997.7,359.1 997.7,194.8 	"/>
	<polygon class="st1" points="1047.2,200.9 1047.2,361.4 1047.2,363.7 1044.9,363.7 1000,363.7 997.7,363.7 997.7,361.4 
		997.7,194.8 1002.3,194.8 1002.3,359.1 1042.6,359.1 1042.6,200.9 	"/>
	<path class="st1" d="M934.2,452.3v171.5h-4.6V452.3H934.2L934.2,452.3z M934.2,714.6v163.9h-4.6V714.6H934.2L934.2,714.6z
		 M884.2,908.5h4.6V363.7h43.1v-4.6h-45.4h-2.3v2.3V908.5z"/>
	<path class="st1" d="M979.6,472.7v105.6H975V472.7H979.6L979.6,472.7z M979.6,760v105.5H975V760H979.6L979.6,760z M929.6,878.4
		V714.6h4.6v163.9H929.6L929.6,878.4z M929.6,623.7V452.3h4.6v171.5H929.6L929.6,623.7z M931.9,359.1h45.4v4.6h-45.4V359.1z"/>
	<path class="st1" d="M1025,472.7v105.6h-4.6V472.7H1025L1025,472.7z M1025,760v105.5h-4.6V760H1025L1025,760z M975,865.4V760h4.6
		v105.5H975L975,865.4z M975,578.3V472.7h4.6v105.6H975L975,578.3z M977.3,359.1h45.4v4.6h-45.4V359.1z"/>
	<path class="st1" d="M1070.4,452.3v171.5h-4.6V452.3H1070.4L1070.4,452.3z M1070.4,714.6v163.9h-4.6V714.6H1070.4L1070.4,714.6z
		 M1020.4,865.4V760h4.6v105.5H1020.4L1020.4,865.4z M1020.4,578.3V472.7h4.6v105.6H1020.4L1020.4,578.3z M1022.7,359.1h45.4v4.6
		h-45.4V359.1z"/>
	<path class="st1" d="M1068.1,359.1h45.4h2.3v2.3v547.1h-4.6V363.7h-43.1V359.1L1068.1,359.1z M1065.8,878.4h4.6V714.6h-4.6V878.4
		L1065.8,878.4z M1065.8,623.7h4.6V452.3h-4.6V623.7z"/>
	<path class="st1" d="M884.8,667.5L998.4,554l1.6-1.6l1.6,1.6l113.5,113.5l1.6,1.6l-1.6,1.6l-113.5,113.5l-1.6,1.6l-1.6-1.6
		L884.8,670.8l-1.6-1.6L884.8,667.5L884.8,667.5z M1000,558.9L889.7,669.1L1000,779.4l110.3-110.3L1000,558.9z"/>
	<path class="st1" d="M1333.3,192.5c46.7,0,88.9,18.9,119.5,49.5c30.6,30.6,49.5,72.8,49.5,119.5v669.1h-4.6
		c0-37.3-12.4-71.7-33.3-99.3c-21.4-28.2-51.7-49.3-86.8-59.1c-7.1-2-14.4-3.5-21.9-4.5c-7.3-1-14.8-1.5-22.4-1.5
		c-7.6,0-15.1,0.5-22.4,1.5c-7.5,1-14.8,2.5-21.9,4.5c-35,9.8-65.4,30.9-86.8,59.1c-20.9,27.6-33.3,62-33.3,99.3h-4.6V361.4
		c0-46.7,18.9-88.9,49.5-119.5C1244.4,211.4,1286.7,192.5,1333.3,192.5L1333.3,192.5z M1449.6,245.2
		c-29.7-29.7-70.8-48.1-116.2-48.1c-45.4,0-86.5,18.4-116.2,48.1c-29.7,29.7-48.1,70.8-48.1,116.2v629.8
		c5.5-23.1,15.8-44.4,29.7-62.7c22-29,53.2-50.7,89.2-60.7c7.3-2,14.8-3.6,22.5-4.6c7.6-1,15.2-1.6,23-1.6c7.8,0,15.4,0.5,23,1.6
		c7.7,1,15.2,2.6,22.5,4.6c36,10,67.2,31.7,89.2,60.7c13.9,18.3,24.2,39.6,29.7,62.7V361.4C1497.7,316,1479.3,274.9,1449.6,245.2z"
		/>
	<path class="st1" d="M1379.1,255c20.9,9,38.6,24,51,42.8c12,18.3,19,40.1,19,63.6c0,32-13,60.9-33.9,81.9
		c-21,21-49.9,33.9-81.9,33.9c-32,0-60.9-13-81.9-33.9c-21-21-33.9-49.9-33.9-81.9c0-23.5,7-45.3,19-63.6
		c12.4-18.8,30.1-33.8,51-42.8l1.8,4.2c-20.1,8.7-37.1,23.1-49,41.1c-11.5,17.5-18.2,38.5-18.2,61.1c0,30.7,12.4,58.5,32.6,78.6
		c20.1,20.1,47.9,32.6,78.6,32.6s58.5-12.5,78.6-32.6c20.1-20.1,32.6-47.9,32.6-78.6c0-22.6-6.7-43.6-18.2-61.1
		c-11.9-18.1-28.9-32.5-49-41.1L1379.1,255z"/>
	<rect x="1166.7" y="359.1" class="st1" width="333.3" height="4.6"/>
	<polygon class="st1" points="1335.6,194.8 1335.6,361.4 1335.6,363.7 1333.3,363.7 1288.5,363.7 1286.2,363.7 1286.2,361.4 
		1286.2,200.9 1290.8,200.9 1290.8,359.1 1331,359.1 1331,194.8 	"/>
	<polygon class="st1" points="1380.5,200.9 1380.5,361.4 1380.5,363.7 1378.2,363.7 1333.3,363.7 1331,363.7 1331,361.4 1331,194.8 
		1335.6,194.8 1335.6,359.1 1375.9,359.1 1375.9,200.9 	"/>
	<path class="st1" d="M1267.5,452.3v171.5h-4.6V452.3H1267.5L1267.5,452.3z M1267.5,714.6v163.9h-4.6V714.6H1267.5L1267.5,714.6z
		 M1217.5,908.5h4.6V363.7h43.1v-4.6h-45.4h-2.3v2.3V908.5z"/>
	<path class="st1" d="M1312.9,472.7v105.6h-4.6V472.7H1312.9L1312.9,472.7z M1312.9,760v105.5h-4.6V760H1312.9L1312.9,760z
		 M1262.9,878.4V714.6h4.6v163.9H1262.9L1262.9,878.4z M1262.9,623.7V452.3h4.6v171.5H1262.9L1262.9,623.7z M1265.2,359.1h45.4v4.6
		h-45.4V359.1z"/>
	<path class="st1" d="M1358.3,472.7v105.6h-4.6V472.7H1358.3L1358.3,472.7z M1358.3,760v105.5h-4.6V760H1358.3L1358.3,760z
		 M1308.3,865.4V760h4.6v105.5H1308.3L1308.3,865.4z M1308.3,578.3V472.7h4.6v105.6H1308.3L1308.3,578.3z M1310.6,359.1h45.4v4.6
		h-45.4V359.1z"/>
	<path class="st1" d="M1403.8,452.3v171.5h-4.6V452.3H1403.8L1403.8,452.3z M1403.8,714.6v163.9h-4.6V714.6H1403.8L1403.8,714.6z
		 M1353.7,865.4V760h4.6v105.5H1353.7L1353.7,865.4z M1353.7,578.3V472.7h4.6v105.6H1353.7L1353.7,578.3z M1356,359.1h45.4v4.6H1356
		V359.1z"/>
	<path class="st1" d="M1401.4,359.1h45.4h2.3v2.3v547.1h-4.6V363.7h-43.1V359.1L1401.4,359.1z M1399.1,878.4h4.6V714.6h-4.6V878.4
		L1399.1,878.4z M1399.1,623.7h4.6V452.3h-4.6V623.7z"/>
	<path class="st1" d="M1218.2,667.5L1331.7,554l1.6-1.6l1.6,1.6l113.5,113.5l1.6,1.6l-1.6,1.6L1335,784.3l-1.6,1.6l-1.6-1.6
		l-113.5-113.5l-1.6-1.6L1218.2,667.5L1218.2,667.5z M1333.3,558.9l-110.3,110.3l110.3,110.3l110.3-110.3L1333.3,558.9z"/>
	<path class="st1" d="M1666.7,192.5c46.7,0,88.9,18.9,119.5,49.5c30.6,30.6,49.5,72.8,49.5,119.5v669.1h-4.6
		c0-37.3-12.4-71.7-33.3-99.3c-21.4-28.2-51.7-49.3-86.8-59.1c-7.1-2-14.4-3.5-21.9-4.5c-7.3-1-14.8-1.5-22.4-1.5
		c-7.6,0-15.1,0.5-22.4,1.5c-7.5,1-14.8,2.5-21.9,4.5c-35,9.8-65.4,30.9-86.8,59.1c-20.9,27.6-33.3,62-33.3,99.3h-4.6V361.4
		c0-46.7,18.9-88.9,49.5-119.5C1577.8,211.4,1620,192.5,1666.7,192.5L1666.7,192.5z M1782.9,245.2c-29.7-29.7-70.8-48.1-116.2-48.1
		c-45.4,0-86.5,18.4-116.2,48.1c-29.7,29.7-48.1,70.8-48.1,116.2v629.8c5.5-23.1,15.8-44.4,29.7-62.7c22-29,53.2-50.7,89.2-60.7
		c7.3-2,14.8-3.6,22.5-4.6c7.6-1,15.2-1.6,23-1.6c7.8,0,15.4,0.5,23,1.6c7.7,1,15.2,2.6,22.5,4.6c36,10,67.2,31.7,89.2,60.7
		c13.9,18.3,24.2,39.6,29.7,62.7V361.4C1831,316,1812.6,274.9,1782.9,245.2z"/>
	<path class="st1" d="M1712.4,255c20.9,9,38.6,24,51,42.8c12,18.3,19,40.1,19,63.6c0,32-13,60.9-33.9,81.9
		c-21,21-49.9,33.9-81.9,33.9c-32,0-60.9-13-81.9-33.9c-21-21-33.9-49.9-33.9-81.9c0-23.5,7-45.3,19-63.6
		c12.4-18.8,30.1-33.8,51-42.8l1.8,4.2c-20.1,8.7-37.1,23.1-49,41.1c-11.5,17.5-18.2,38.5-18.2,61.1c0,30.7,12.5,58.5,32.6,78.6
		c20.1,20.1,47.9,32.6,78.6,32.6c30.7,0,58.5-12.5,78.6-32.6c20.1-20.1,32.6-47.9,32.6-78.6c0-22.6-6.7-43.6-18.2-61.1
		c-11.9-18.1-28.9-32.5-49-41.1L1712.4,255z"/>
	<rect x="1500" y="359.1" class="st1" width="333.3" height="4.6"/>
	<polygon class="st1" points="1669,194.8 1669,361.4 1669,363.7 1666.7,363.7 1621.8,363.7 1619.5,363.7 1619.5,361.4 1619.5,200.9 
		1624.1,200.9 1624.1,359.1 1664.4,359.1 1664.4,194.8 	"/>
	<polygon class="st1" points="1713.8,200.9 1713.8,361.4 1713.8,363.7 1711.5,363.7 1666.7,363.7 1664.4,363.7 1664.4,361.4 
		1664.4,194.8 1669,194.8 1669,359.1 1709.2,359.1 1709.2,200.9 	"/>
	<path class="st1" d="M1600.9,452.3v171.5h-4.6V452.3H1600.9L1600.9,452.3z M1600.9,714.6v163.9h-4.6V714.6H1600.9L1600.9,714.6z
		 M1550.8,908.5h4.6V363.7h43.1v-4.6h-45.4h-2.3v2.3V908.5z"/>
	<path class="st1" d="M1646.3,472.7v105.6h-4.6V472.7H1646.3L1646.3,472.7z M1646.3,760v105.5h-4.6V760H1646.3L1646.3,760z
		 M1596.2,878.4V714.6h4.6v163.9H1596.2L1596.2,878.4z M1596.2,623.7V452.3h4.6v171.5H1596.2L1596.2,623.7z M1598.6,359.1h45.4v4.6
		h-45.4V359.1z"/>
	<path class="st1" d="M1691.7,472.7v105.6h-4.6V472.7H1691.7L1691.7,472.7z M1691.7,760v105.5h-4.6V760H1691.7L1691.7,760z
		 M1641.7,865.4V760h4.6v105.5H1641.7L1641.7,865.4z M1641.7,578.3V472.7h4.6v105.6H1641.7L1641.7,578.3z M1644,359.1h45.4v4.6H1644
		V359.1z"/>
	<path class="st1" d="M1737.1,452.3v171.5h-4.6V452.3H1737.1L1737.1,452.3z M1737.1,714.6v163.9h-4.6V714.6H1737.1L1737.1,714.6z
		 M1687.1,865.4V760h4.6v105.5H1687.1L1687.1,865.4z M1687.1,578.3V472.7h4.6v105.6H1687.1L1687.1,578.3z M1689.4,359.1h45.4v4.6
		h-45.4V359.1z"/>
	<path class="st1" d="M1734.8,359.1h45.4h2.3v2.3v547.1h-4.6V363.7h-43.1V359.1L1734.8,359.1z M1732.5,878.4h4.6V714.6h-4.6V878.4
		L1732.5,878.4z M1732.5,623.7h4.6V452.3h-4.6V623.7z"/>
	<path class="st1" d="M1551.5,667.5L1665,554l1.6-1.6l1.6,1.6l113.5,113.5l1.6,1.6l-1.6,1.6l-113.5,113.5l-1.6,1.6l-1.6-1.6
		l-113.5-113.5l-1.6-1.6L1551.5,667.5L1551.5,667.5z M1666.7,558.9l-110.3,110.3l110.3,110.3l110.3-110.3L1666.7,558.9z"/>
	<path class="st1" d="M2000,866.2c-7.6,0-15.1,0.5-22.4,1.5c-7.5,1-14.8,2.5-21.9,4.5c-35,9.8-65.4,30.9-86.8,59.1
		c-20.9,27.6-33.3,62-33.3,99.3h-4.6V361.4c0-46.7,18.9-88.9,49.5-119.5c30.6-30.6,72.8-49.5,119.5-49.5v4.6
		c-45.4,0-86.5,18.4-116.2,48.1c-29.7,29.7-48.1,70.8-48.1,116.2v629.8c5.5-23.1,15.8-44.4,29.7-62.7c22-29,53.2-50.7,89.2-60.7
		c7.3-2,14.8-3.6,22.5-4.6c7.5-1,15.2-1.6,23-1.6V866.2z"/>
	<path class="st1" d="M2000,477.3c-32,0-60.9-13-81.9-33.9c-21-21-33.9-49.9-33.9-81.9c0-23.5,7-45.3,19-63.6
		c12.4-18.8,30.1-33.8,51-42.8l1.8,4.2c-20.1,8.7-37.1,23.1-49,41.1c-11.5,17.5-18.2,38.5-18.2,61.1c0,30.7,12.4,58.5,32.6,78.6
		c20.1,20.1,47.9,32.6,78.6,32.6V477.3z"/>
	<rect x="1833.3" y="359.1" class="st1" width="166.7" height="4.6"/>
	<polygon class="st1" points="2000,363.7 1955.1,363.7 1952.8,363.7 1952.8,361.4 1952.8,200.9 1957.4,200.9 1957.4,359.1 
		1997.7,359.1 1997.7,194.8 2000,194.8 	"/>
	<polygon class="st1" points="2000,363.7 1997.7,363.7 1997.7,361.4 1997.7,194.8 2000,194.8 	"/>
	<path class="st1" d="M1934.2,452.3v171.5h-4.6V452.3H1934.2L1934.2,452.3z M1934.2,714.6v163.9h-4.6V714.6H1934.2L1934.2,714.6z
		 M1884.2,908.5h4.6V363.7h43.1v-4.6h-45.4h-2.3v2.3V908.5z"/>
	<path class="st1" d="M1979.6,472.7v105.6h-4.6V472.7H1979.6L1979.6,472.7z M1979.6,760v105.5h-4.6V760H1979.6L1979.6,760z
		 M1929.6,878.4V714.6h4.6v163.9H1929.6L1929.6,878.4z M1929.6,623.7V452.3h4.6v171.5H1929.6L1929.6,623.7z M1931.9,359.1h45.4v4.6
		h-45.4V359.1z"/>
	<path class="st1" d="M2000,359.1v4.6h-22.7v-4.6H2000L2000,359.1z M1975,865.4V760h4.6v105.5H1975L1975,865.4z M1975,578.3V472.7
		h4.6v105.6H1975z"/>
	<polygon class="st1" points="1884.8,667.5 1998.4,554 2000,552.4 2000,558.9 1889.7,669.1 2000,779.4 2000,785.9 1998.4,784.3 
		1884.8,670.8 1883.2,669.1 	"/>
	<path class="st1" d="M0,861.6c46.7,0,88.9,18.9,119.5,49.5c30.6,30.6,49.5,72.8,49.5,119.5v669.1h-4.6c0-37.3-12.4-71.7-33.3-99.3
		c-21.4-28.2-51.7-49.3-86.8-59.1c-7.1-2-14.4-3.5-21.9-4.5c-7.3-1-14.8-1.5-22.4-1.5v-4.6c7.8,0,15.4,0.5,23,1.6
		c7.7,1,15.2,2.6,22.5,4.6c36,10,67.2,31.7,89.2,60.7c13.9,18.3,24.2,39.6,29.7,62.7v-629.8c0-45.4-18.4-86.5-48.1-116.2
		C86.5,884.6,45.4,866.2,0,866.2V861.6z"/>
	<path class="st1" d="M45.8,924.1c20.9,9,38.6,24,51,42.8c12,18.3,19,40.1,19,63.6c0,32-13,60.9-33.9,81.9
		c-21,21-49.9,33.9-81.9,33.9v-4.6c30.7,0,58.5-12.4,78.6-32.6c20.1-20.1,32.6-47.9,32.6-78.6c0-22.6-6.7-43.6-18.2-61.1
		c-11.9-18.1-28.9-32.5-49-41.1L45.8,924.1z"/>
	<rect x="0" y="1028.3" class="st1" width="166.7" height="4.6"/>
	<polygon class="st1" points="2.3,863.9 2.3,1030.6 2.3,1032.9 0,1032.9 0,863.9 	"/>
	<polygon class="st1" points="47.2,870 47.2,1030.6 47.2,1032.9 44.9,1032.9 0,1032.9 0,863.9 2.3,863.9 2.3,1028.3 42.6,1028.3 
		42.6,870 	"/>
	<path class="st1" d="M25,1141.8v105.6h-4.6v-105.6H25L25,1141.8z M0,1032.9v-4.6h22.7v4.6H0L0,1032.9z M25,1429.1v105.5h-4.6
		v-105.5H25z"/>
	<path class="st1" d="M70.4,1121.4v171.5h-4.6v-171.5H70.4L70.4,1121.4z M70.4,1383.7v163.9h-4.6v-163.9H70.4L70.4,1383.7z
		 M20.4,1534.6v-105.5H25v105.5H20.4L20.4,1534.6z M20.4,1247.5v-105.6H25v105.6H20.4L20.4,1247.5z M22.7,1028.3h45.4v4.6H22.7
		V1028.3z"/>
	<path class="st1" d="M68.1,1028.3h45.4h2.3v2.3v547.1h-4.6v-544.8H68.1V1028.3L68.1,1028.3z M65.8,1547.6h4.6v-163.9h-4.6V1547.6
		L65.8,1547.6z M65.8,1292.9h4.6v-171.5h-4.6V1292.9z"/>
	<polygon class="st1" points="0,1221.5 1.6,1223.1 115.2,1336.7 116.8,1338.3 115.2,1339.9 1.6,1453.4 0,1455.1 0,1448.6 
		110.3,1338.3 0,1228 	"/>
	<path class="st1" d="M333.3,861.6c46.7,0,88.9,18.9,119.5,49.5c30.6,30.6,49.5,72.8,49.5,119.5v669.1h-4.6
		c0-37.3-12.4-71.7-33.3-99.3c-21.4-28.2-51.7-49.3-86.8-59.1c-7.1-2-14.4-3.5-21.9-4.5c-7.3-1-14.8-1.5-22.4-1.5
		c-7.6,0-15.1,0.5-22.4,1.5c-7.5,1-14.8,2.5-21.9,4.5c-35,9.8-65.4,30.9-86.8,59.1c-20.9,27.6-33.3,62-33.3,99.3h-4.6v-669.1
		c0-46.7,18.9-88.9,49.5-119.5C244.4,880.5,286.7,861.6,333.3,861.6L333.3,861.6z M449.6,914.4c-29.7-29.7-70.8-48.1-116.2-48.1
		c-45.4,0-86.5,18.4-116.2,48.1c-29.7,29.7-48.1,70.8-48.1,116.2v629.8c5.5-23.1,15.8-44.4,29.7-62.7c22-29,53.2-50.7,89.2-60.7
		c7.3-2,14.8-3.6,22.5-4.6c7.6-1,15.2-1.6,23-1.6c7.8,0,15.4,0.5,23,1.6c7.7,1,15.2,2.6,22.5,4.6c36,10,67.2,31.7,89.2,60.7
		c13.9,18.3,24.2,39.6,29.7,62.7v-629.8C497.7,985.2,479.3,944.1,449.6,914.4z"/>
	<path class="st1" d="M379.1,924.1c20.9,9,38.6,24,51,42.8c12,18.3,19,40.1,19,63.6c0,32-13,60.9-33.9,81.9
		c-21,21-49.9,33.9-81.9,33.9c-32,0-60.9-13-81.9-33.9c-21-21-33.9-49.9-33.9-81.9c0-23.5,7-45.3,19-63.6
		c12.4-18.8,30.1-33.8,51-42.8l1.8,4.2c-20.1,8.7-37.1,23.1-49,41.1c-11.5,17.5-18.2,38.5-18.2,61.1c0,30.7,12.4,58.5,32.6,78.6
		c20.1,20.1,47.9,32.6,78.6,32.6s58.5-12.4,78.6-32.6c20.1-20.1,32.6-47.9,32.6-78.6c0-22.6-6.7-43.6-18.2-61.1
		c-11.9-18.1-28.9-32.5-49-41.1L379.1,924.1z"/>
	<rect x="166.7" y="1028.3" class="st1" width="333.3" height="4.6"/>
	<polygon class="st1" points="335.6,863.9 335.6,1030.6 335.6,1032.9 333.3,1032.9 288.5,1032.9 286.2,1032.9 286.2,1030.6 
		286.2,870 290.8,870 290.8,1028.3 331,1028.3 331,863.9 	"/>
	<polygon class="st1" points="380.5,870 380.5,1030.6 380.5,1032.9 378.2,1032.9 333.3,1032.9 331,1032.9 331,1030.6 331,863.9 
		335.6,863.9 335.6,1028.3 375.9,1028.3 375.9,870 	"/>
	<path class="st1" d="M267.5,1121.4v171.5h-4.6v-171.5H267.5L267.5,1121.4z M267.5,1383.7v163.9h-4.6v-163.9H267.5L267.5,1383.7z
		 M217.5,1577.7h4.6v-544.8h43.1v-4.6h-45.4h-2.3v2.3V1577.7z"/>
	<path class="st1" d="M312.9,1141.8v105.6h-4.6v-105.6H312.9L312.9,1141.8z M312.9,1429.1v105.5h-4.6v-105.5H312.9L312.9,1429.1z
		 M262.9,1547.6v-163.9h4.6v163.9H262.9L262.9,1547.6z M262.9,1292.9v-171.5h4.6v171.5H262.9L262.9,1292.9z M265.2,1028.3h45.4v4.6
		h-45.4V1028.3z"/>
	<path class="st1" d="M358.3,1141.8v105.6h-4.6v-105.6H358.3L358.3,1141.8z M358.3,1429.1v105.5h-4.6v-105.5H358.3L358.3,1429.1z
		 M308.3,1534.6v-105.5h4.6v105.5H308.3L308.3,1534.6z M308.3,1247.5v-105.6h4.6v105.6H308.3L308.3,1247.5z M310.6,1028.3H356v4.6
		h-45.4V1028.3z"/>
	<path class="st1" d="M403.8,1121.4v171.5h-4.6v-171.5H403.8L403.8,1121.4z M403.8,1383.7v163.9h-4.6v-163.9H403.8L403.8,1383.7z
		 M353.7,1534.6v-105.5h4.6v105.5H353.7L353.7,1534.6z M353.7,1247.5v-105.6h4.6v105.6H353.7L353.7,1247.5z M356,1028.3h45.4v4.6
		H356V1028.3z"/>
	<path class="st1" d="M401.4,1028.3h45.4h2.3v2.3v547.1h-4.6v-544.8h-43.1V1028.3L401.4,1028.3z M399.1,1547.6h4.6v-163.9h-4.6
		V1547.6L399.1,1547.6z M399.1,1292.9h4.6v-171.5h-4.6V1292.9z"/>
	<path class="st1" d="M218.2,1336.7l113.5-113.5l1.6-1.6l1.6,1.6l113.5,113.5l1.6,1.6l-1.6,1.6L335,1453.4l-1.6,1.6l-1.6-1.6
		l-113.5-113.5l-1.6-1.6L218.2,1336.7L218.2,1336.7z M333.3,1228l-110.3,110.3l110.3,110.3l110.3-110.3L333.3,1228z"/>
	<path class="st1" d="M666.7,861.6c46.7,0,88.9,18.9,119.5,49.5c30.6,30.6,49.5,72.8,49.5,119.5v669.1H831
		c0-37.3-12.4-71.7-33.3-99.3c-21.4-28.2-51.7-49.3-86.8-59.1c-7.1-2-14.4-3.5-21.9-4.5c-7.3-1-14.8-1.5-22.4-1.5
		c-7.6,0-15.1,0.5-22.4,1.5c-7.5,1-14.8,2.5-21.9,4.5c-35,9.8-65.4,30.9-86.8,59.1c-20.9,27.6-33.3,62-33.3,99.3h-4.6v-669.1
		c0-46.7,18.9-88.9,49.5-119.5C577.8,880.5,620,861.6,666.7,861.6L666.7,861.6z M782.9,914.4c-29.7-29.7-70.8-48.1-116.2-48.1
		c-45.4,0-86.5,18.4-116.2,48.1c-29.7,29.7-48.1,70.8-48.1,116.2v629.8c5.5-23.1,15.8-44.4,29.7-62.7c22-29,53.2-50.7,89.2-60.7
		c7.3-2,14.8-3.6,22.5-4.6c7.6-1,15.2-1.6,23-1.6c7.8,0,15.4,0.5,23,1.6c7.7,1,15.2,2.6,22.5,4.6c36,10,67.2,31.7,89.2,60.7
		c13.9,18.3,24.2,39.6,29.7,62.7v-629.8C831,985.2,812.6,944.1,782.9,914.4z"/>
	<path class="st1" d="M712.4,924.1c20.9,9,38.6,24,51,42.8c12,18.3,19,40.1,19,63.6c0,32-13,60.9-33.9,81.9
		c-21,21-49.9,33.9-81.9,33.9c-32,0-60.9-13-81.9-33.9c-21-21-33.9-49.9-33.9-81.9c0-23.5,7-45.3,19-63.6
		c12.4-18.8,30.1-33.8,51-42.8l1.8,4.2c-20.1,8.7-37.1,23.1-49,41.1c-11.5,17.5-18.2,38.5-18.2,61.1c0,30.7,12.5,58.5,32.6,78.6
		c20.1,20.1,47.9,32.6,78.6,32.6s58.5-12.4,78.6-32.6c20.1-20.1,32.6-47.9,32.6-78.6c0-22.6-6.7-43.6-18.2-61.1
		c-11.9-18.1-28.9-32.5-49-41.1L712.4,924.1z"/>
	<rect x="500" y="1028.3" class="st1" width="333.3" height="4.6"/>
	<polygon class="st1" points="669,863.9 669,1030.6 669,1032.9 666.7,1032.9 621.8,1032.9 619.5,1032.9 619.5,1030.6 619.5,870 
		624.1,870 624.1,1028.3 664.4,1028.3 664.4,863.9 	"/>
	<polygon class="st1" points="713.8,870 713.8,1030.6 713.8,1032.9 711.5,1032.9 666.7,1032.9 664.4,1032.9 664.4,1030.6 
		664.4,863.9 669,863.9 669,1028.3 709.2,1028.3 709.2,870 	"/>
	<path class="st1" d="M600.9,1121.4v171.5h-4.6v-171.5H600.9L600.9,1121.4z M600.9,1383.7v163.9h-4.6v-163.9H600.9L600.9,1383.7z
		 M550.8,1577.7h4.6v-544.8h43.1v-4.6h-45.4h-2.3v2.3V1577.7z"/>
	<path class="st1" d="M646.3,1141.8v105.6h-4.6v-105.6H646.3L646.3,1141.8z M646.3,1429.1v105.5h-4.6v-105.5H646.3L646.3,1429.1z
		 M596.2,1547.6v-163.9h4.6v163.9H596.2L596.2,1547.6z M596.2,1292.9v-171.5h4.6v171.5H596.2L596.2,1292.9z M598.6,1028.3H644v4.6
		h-45.4V1028.3z"/>
	<path class="st1" d="M691.7,1141.8v105.6h-4.6v-105.6H691.7L691.7,1141.8z M691.7,1429.1v105.5h-4.6v-105.5H691.7L691.7,1429.1z
		 M641.7,1534.6v-105.5h4.6v105.5H641.7L641.7,1534.6z M641.7,1247.5v-105.6h4.6v105.6H641.7L641.7,1247.5z M644,1028.3h45.4v4.6
		H644V1028.3z"/>
	<path class="st1" d="M737.1,1121.4v171.5h-4.6v-171.5H737.1L737.1,1121.4z M737.1,1383.7v163.9h-4.6v-163.9H737.1L737.1,1383.7z
		 M687.1,1534.6v-105.5h4.6v105.5H687.1L687.1,1534.6z M687.1,1247.5v-105.6h4.6v105.6H687.1L687.1,1247.5z M689.4,1028.3h45.4v4.6
		h-45.4V1028.3z"/>
	<path class="st1" d="M734.8,1028.3h45.4h2.3v2.3v547.1h-4.6v-544.8h-43.1V1028.3L734.8,1028.3z M732.5,1547.6h4.6v-163.9h-4.6
		V1547.6L732.5,1547.6z M732.5,1292.9h4.6v-171.5h-4.6V1292.9z"/>
	<path class="st1" d="M551.5,1336.7L665,1223.1l1.6-1.6l1.6,1.6l113.5,113.5l1.6,1.6l-1.6,1.6l-113.5,113.5l-1.6,1.6l-1.6-1.6
		l-113.5-113.5l-1.6-1.6L551.5,1336.7L551.5,1336.7z M666.7,1228l-110.3,110.3l110.3,110.3l110.3-110.3L666.7,1228z"/>
	<path class="st1" d="M1000,861.6c46.7,0,88.9,18.9,119.5,49.5c30.6,30.6,49.5,72.8,49.5,119.5v669.1h-4.6
		c0-37.3-12.4-71.7-33.3-99.3c-21.4-28.2-51.7-49.3-86.8-59.1c-7.1-2-14.4-3.5-21.9-4.5c-7.3-1-14.8-1.5-22.4-1.5
		c-7.6,0-15.1,0.5-22.4,1.5c-7.5,1-14.8,2.5-21.9,4.5c-35,9.8-65.4,30.9-86.8,59.1c-20.9,27.6-33.3,62-33.3,99.3H831v-669.1
		c0-46.7,18.9-88.9,49.5-119.5C911.1,880.5,953.3,861.6,1000,861.6L1000,861.6z M1116.2,914.4c-29.7-29.7-70.8-48.1-116.2-48.1
		s-86.5,18.4-116.2,48.1c-29.7,29.7-48.1,70.8-48.1,116.2v629.8c5.5-23.1,15.8-44.4,29.7-62.7c22-29,53.2-50.7,89.2-60.7
		c7.3-2,14.8-3.6,22.5-4.6c7.5-1,15.2-1.6,23-1.6s15.4,0.5,23,1.6c7.7,1,15.2,2.6,22.5,4.6c36,10,67.2,31.7,89.2,60.7
		c13.9,18.3,24.2,39.6,29.7,62.7v-629.8C1164.4,985.2,1146,944.1,1116.2,914.4z"/>
	<path class="st1" d="M1045.8,924.1c20.9,9,38.6,24,51,42.8c12,18.3,19,40.1,19,63.6c0,32-13,60.9-33.9,81.9
		c-21,21-49.9,33.9-81.9,33.9c-32,0-60.9-13-81.9-33.9c-21-21-33.9-49.9-33.9-81.9c0-23.5,7-45.3,19-63.6
		c12.4-18.8,30.1-33.8,51-42.8l1.8,4.2c-20.1,8.7-37.1,23.1-49,41.1c-11.5,17.5-18.2,38.5-18.2,61.1c0,30.7,12.4,58.5,32.6,78.6
		c20.1,20.1,47.9,32.6,78.6,32.6s58.5-12.4,78.6-32.6c20.1-20.1,32.6-47.9,32.6-78.6c0-22.6-6.7-43.6-18.2-61.1
		c-11.9-18.1-28.9-32.5-49-41.1L1045.8,924.1z"/>
	<rect x="833.3" y="1028.3" class="st1" width="333.3" height="4.6"/>
	<polygon class="st1" points="1002.3,863.9 1002.3,1030.6 1002.3,1032.9 1000,1032.9 955.1,1032.9 952.8,1032.9 952.8,1030.6 
		952.8,870 957.4,870 957.4,1028.3 997.7,1028.3 997.7,863.9 	"/>
	<polygon class="st1" points="1047.2,870 1047.2,1030.6 1047.2,1032.9 1044.9,1032.9 1000,1032.9 997.7,1032.9 997.7,1030.6 
		997.7,863.9 1002.3,863.9 1002.3,1028.3 1042.6,1028.3 1042.6,870 	"/>
	<path class="st1" d="M934.2,1121.4v171.5h-4.6v-171.5H934.2L934.2,1121.4z M934.2,1383.7v163.9h-4.6v-163.9H934.2L934.2,1383.7z
		 M884.2,1577.7h4.6v-544.8h43.1v-4.6h-45.4h-2.3v2.3V1577.7z"/>
	<path class="st1" d="M979.6,1141.8v105.6H975v-105.6H979.6L979.6,1141.8z M979.6,1429.1v105.5H975v-105.5H979.6L979.6,1429.1z
		 M929.6,1547.6v-163.9h4.6v163.9H929.6L929.6,1547.6z M929.6,1292.9v-171.5h4.6v171.5H929.6L929.6,1292.9z M931.9,1028.3h45.4v4.6
		h-45.4V1028.3z"/>
	<path class="st1" d="M1025,1141.8v105.6h-4.6v-105.6H1025L1025,1141.8z M1025,1429.1v105.5h-4.6v-105.5H1025L1025,1429.1z
		 M975,1534.6v-105.5h4.6v105.5H975L975,1534.6z M975,1247.5v-105.6h4.6v105.6H975L975,1247.5z M977.3,1028.3h45.4v4.6h-45.4V1028.3
		z"/>
	<path class="st1" d="M1070.4,1121.4v171.5h-4.6v-171.5H1070.4L1070.4,1121.4z M1070.4,1383.7v163.9h-4.6v-163.9H1070.4
		L1070.4,1383.7z M1020.4,1534.6v-105.5h4.6v105.5H1020.4L1020.4,1534.6z M1020.4,1247.5v-105.6h4.6v105.6H1020.4L1020.4,1247.5z
		 M1022.7,1028.3h45.4v4.6h-45.4V1028.3z"/>
	<path class="st1" d="M1068.1,1028.3h45.4h2.3v2.3v547.1h-4.6v-544.8h-43.1V1028.3L1068.1,1028.3z M1065.8,1547.6h4.6v-163.9h-4.6
		V1547.6L1065.8,1547.6z M1065.8,1292.9h4.6v-171.5h-4.6V1292.9z"/>
	<path class="st1" d="M884.8,1336.7l113.5-113.5l1.6-1.6l1.6,1.6l113.5,113.5l1.6,1.6l-1.6,1.6l-113.5,113.5l-1.6,1.6l-1.6-1.6
		l-113.5-113.5l-1.6-1.6L884.8,1336.7L884.8,1336.7z M1000,1228l-110.3,110.3l110.3,110.3l110.3-110.3L1000,1228z"/>
	<path class="st1" d="M1333.3,861.6c46.7,0,88.9,18.9,119.5,49.5c30.6,30.6,49.5,72.8,49.5,119.5v669.1h-4.6
		c0-37.3-12.4-71.7-33.3-99.3c-21.4-28.2-51.7-49.3-86.8-59.1c-7.1-2-14.4-3.5-21.9-4.5c-7.3-1-14.8-1.5-22.4-1.5
		c-7.6,0-15.1,0.5-22.4,1.5c-7.5,1-14.8,2.5-21.9,4.5c-35,9.8-65.4,30.9-86.8,59.1c-20.9,27.6-33.3,62-33.3,99.3h-4.6v-669.1
		c0-46.7,18.9-88.9,49.5-119.5C1244.4,880.5,1286.7,861.6,1333.3,861.6L1333.3,861.6z M1449.6,914.4
		c-29.7-29.7-70.8-48.1-116.2-48.1c-45.4,0-86.5,18.4-116.2,48.1c-29.7,29.7-48.1,70.8-48.1,116.2v629.8
		c5.5-23.1,15.8-44.4,29.7-62.7c22-29,53.2-50.7,89.2-60.7c7.3-2,14.8-3.6,22.5-4.6c7.6-1,15.2-1.6,23-1.6c7.8,0,15.4,0.5,23,1.6
		c7.7,1,15.2,2.6,22.5,4.6c36,10,67.2,31.7,89.2,60.7c13.9,18.3,24.2,39.6,29.7,62.7v-629.8C1497.7,985.2,1479.3,944.1,1449.6,914.4
		z"/>
	<path class="st1" d="M1379.1,924.1c20.9,9,38.6,24,51,42.8c12,18.3,19,40.1,19,63.6c0,32-13,60.9-33.9,81.9
		c-21,21-49.9,33.9-81.9,33.9c-32,0-60.9-13-81.9-33.9c-21-21-33.9-49.9-33.9-81.9c0-23.5,7-45.3,19-63.6
		c12.4-18.8,30.1-33.8,51-42.8l1.8,4.2c-20.1,8.7-37.1,23.1-49,41.1c-11.5,17.5-18.2,38.5-18.2,61.1c0,30.7,12.4,58.5,32.6,78.6
		c20.1,20.1,47.9,32.6,78.6,32.6s58.5-12.4,78.6-32.6c20.1-20.1,32.6-47.9,32.6-78.6c0-22.6-6.7-43.6-18.2-61.1
		c-11.9-18.1-28.9-32.5-49-41.1L1379.1,924.1z"/>
	<rect x="1166.7" y="1028.3" class="st1" width="333.3" height="4.6"/>
	<polygon class="st1" points="1335.6,863.9 1335.6,1030.6 1335.6,1032.9 1333.3,1032.9 1288.5,1032.9 1286.2,1032.9 1286.2,1030.6 
		1286.2,870 1290.8,870 1290.8,1028.3 1331,1028.3 1331,863.9 	"/>
	<polygon class="st1" points="1380.5,870 1380.5,1030.6 1380.5,1032.9 1378.2,1032.9 1333.3,1032.9 1331,1032.9 1331,1030.6 
		1331,863.9 1335.6,863.9 1335.6,1028.3 1375.9,1028.3 1375.9,870 	"/>
	<path class="st1" d="M1267.5,1121.4v171.5h-4.6v-171.5H1267.5L1267.5,1121.4z M1267.5,1383.7v163.9h-4.6v-163.9H1267.5
		L1267.5,1383.7z M1217.5,1577.7h4.6v-544.8h43.1v-4.6h-45.4h-2.3v2.3V1577.7z"/>
	<path class="st1" d="M1312.9,1141.8v105.6h-4.6v-105.6H1312.9L1312.9,1141.8z M1312.9,1429.1v105.5h-4.6v-105.5H1312.9
		L1312.9,1429.1z M1262.9,1547.6v-163.9h4.6v163.9H1262.9L1262.9,1547.6z M1262.9,1292.9v-171.5h4.6v171.5H1262.9L1262.9,1292.9z
		 M1265.2,1028.3h45.4v4.6h-45.4V1028.3z"/>
	<path class="st1" d="M1358.3,1141.8v105.6h-4.6v-105.6H1358.3L1358.3,1141.8z M1358.3,1429.1v105.5h-4.6v-105.5H1358.3
		L1358.3,1429.1z M1308.3,1534.6v-105.5h4.6v105.5H1308.3L1308.3,1534.6z M1308.3,1247.5v-105.6h4.6v105.6H1308.3L1308.3,1247.5z
		 M1310.6,1028.3h45.4v4.6h-45.4V1028.3z"/>
	<path class="st1" d="M1403.8,1121.4v171.5h-4.6v-171.5H1403.8L1403.8,1121.4z M1403.8,1383.7v163.9h-4.6v-163.9H1403.8
		L1403.8,1383.7z M1353.7,1534.6v-105.5h4.6v105.5H1353.7L1353.7,1534.6z M1353.7,1247.5v-105.6h4.6v105.6H1353.7L1353.7,1247.5z
		 M1356,1028.3h45.4v4.6H1356V1028.3z"/>
	<path class="st1" d="M1401.4,1028.3h45.4h2.3v2.3v547.1h-4.6v-544.8h-43.1V1028.3L1401.4,1028.3z M1399.1,1547.6h4.6v-163.9h-4.6
		V1547.6L1399.1,1547.6z M1399.1,1292.9h4.6v-171.5h-4.6V1292.9z"/>
	<path class="st1" d="M1218.2,1336.7l113.5-113.5l1.6-1.6l1.6,1.6l113.5,113.5l1.6,1.6l-1.6,1.6L1335,1453.4l-1.6,1.6l-1.6-1.6
		l-113.5-113.5l-1.6-1.6L1218.2,1336.7L1218.2,1336.7z M1333.3,1228l-110.3,110.3l110.3,110.3l110.3-110.3L1333.3,1228z"/>
	<path class="st1" d="M1666.7,861.6c46.7,0,88.9,18.9,119.5,49.5c30.6,30.6,49.5,72.8,49.5,119.5v669.1h-4.6
		c0-37.3-12.4-71.7-33.3-99.3c-21.4-28.2-51.7-49.3-86.8-59.1c-7.1-2-14.4-3.5-21.9-4.5c-7.3-1-14.8-1.5-22.4-1.5
		c-7.6,0-15.1,0.5-22.4,1.5c-7.5,1-14.8,2.5-21.9,4.5c-35,9.8-65.4,30.9-86.8,59.1c-20.9,27.6-33.3,62-33.3,99.3h-4.6v-669.1
		c0-46.7,18.9-88.9,49.5-119.5C1577.8,880.5,1620,861.6,1666.7,861.6L1666.7,861.6z M1782.9,914.4c-29.7-29.7-70.8-48.1-116.2-48.1
		c-45.4,0-86.5,18.4-116.2,48.1c-29.7,29.7-48.1,70.8-48.1,116.2v629.8c5.5-23.1,15.8-44.4,29.7-62.7c22-29,53.2-50.7,89.2-60.7
		c7.3-2,14.8-3.6,22.5-4.6c7.6-1,15.2-1.6,23-1.6c7.8,0,15.4,0.5,23,1.6c7.7,1,15.2,2.6,22.5,4.6c36,10,67.2,31.7,89.2,60.7
		c13.9,18.3,24.2,39.6,29.7,62.7v-629.8C1831,985.2,1812.6,944.1,1782.9,914.4z"/>
	<path class="st1" d="M1712.4,924.1c20.9,9,38.6,24,51,42.8c12,18.3,19,40.1,19,63.6c0,32-13,60.9-33.9,81.9
		c-21,21-49.9,33.9-81.9,33.9c-32,0-60.9-13-81.9-33.9c-21-21-33.9-49.9-33.9-81.9c0-23.5,7-45.3,19-63.6
		c12.4-18.8,30.1-33.8,51-42.8l1.8,4.2c-20.1,8.7-37.1,23.1-49,41.1c-11.5,17.5-18.2,38.5-18.2,61.1c0,30.7,12.5,58.5,32.6,78.6
		c20.1,20.1,47.9,32.6,78.6,32.6c30.7,0,58.5-12.4,78.6-32.6c20.1-20.1,32.6-47.9,32.6-78.6c0-22.6-6.7-43.6-18.2-61.1
		c-11.9-18.1-28.9-32.5-49-41.1L1712.4,924.1z"/>
	<rect x="1500" y="1028.3" class="st1" width="333.3" height="4.6"/>
	<polygon class="st1" points="1669,863.9 1669,1030.6 1669,1032.9 1666.7,1032.9 1621.8,1032.9 1619.5,1032.9 1619.5,1030.6 
		1619.5,870 1624.1,870 1624.1,1028.3 1664.4,1028.3 1664.4,863.9 	"/>
	<polygon class="st1" points="1713.8,870 1713.8,1030.6 1713.8,1032.9 1711.5,1032.9 1666.7,1032.9 1664.4,1032.9 1664.4,1030.6 
		1664.4,863.9 1669,863.9 1669,1028.3 1709.2,1028.3 1709.2,870 	"/>
	<path class="st1" d="M1600.9,1121.4v171.5h-4.6v-171.5H1600.9L1600.9,1121.4z M1600.9,1383.7v163.9h-4.6v-163.9H1600.9
		L1600.9,1383.7z M1550.8,1577.7h4.6v-544.8h43.1v-4.6h-45.4h-2.3v2.3V1577.7z"/>
	<path class="st1" d="M1646.3,1141.8v105.6h-4.6v-105.6H1646.3L1646.3,1141.8z M1646.3,1429.1v105.5h-4.6v-105.5H1646.3
		L1646.3,1429.1z M1596.2,1547.6v-163.9h4.6v163.9H1596.2L1596.2,1547.6z M1596.2,1292.9v-171.5h4.6v171.5H1596.2L1596.2,1292.9z
		 M1598.6,1028.3h45.4v4.6h-45.4V1028.3z"/>
	<path class="st1" d="M1691.7,1141.8v105.6h-4.6v-105.6H1691.7L1691.7,1141.8z M1691.7,1429.1v105.5h-4.6v-105.5H1691.7
		L1691.7,1429.1z M1641.7,1534.6v-105.5h4.6v105.5H1641.7L1641.7,1534.6z M1641.7,1247.5v-105.6h4.6v105.6H1641.7L1641.7,1247.5z
		 M1644,1028.3h45.4v4.6H1644V1028.3z"/>
	<path class="st1" d="M1737.1,1121.4v171.5h-4.6v-171.5H1737.1L1737.1,1121.4z M1737.1,1383.7v163.9h-4.6v-163.9H1737.1
		L1737.1,1383.7z M1687.1,1534.6v-105.5h4.6v105.5H1687.1L1687.1,1534.6z M1687.1,1247.5v-105.6h4.6v105.6H1687.1L1687.1,1247.5z
		 M1689.4,1028.3h45.4v4.6h-45.4V1028.3z"/>
	<path class="st1" d="M1734.8,1028.3h45.4h2.3v2.3v547.1h-4.6v-544.8h-43.1V1028.3L1734.8,1028.3z M1732.5,1547.6h4.6v-163.9h-4.6
		V1547.6L1732.5,1547.6z M1732.5,1292.9h4.6v-171.5h-4.6V1292.9z"/>
	<path class="st1" d="M1551.5,1336.7l113.5-113.5l1.6-1.6l1.6,1.6l113.5,113.5l1.6,1.6l-1.6,1.6l-113.5,113.5l-1.6,1.6l-1.6-1.6
		l-113.5-113.5l-1.6-1.6L1551.5,1336.7L1551.5,1336.7z M1666.7,1228l-110.3,110.3l110.3,110.3l110.3-110.3L1666.7,1228z"/>
	<path class="st1" d="M2000,1535.4c-7.6,0-15.1,0.5-22.4,1.5c-7.5,1-14.8,2.5-21.9,4.5c-35,9.8-65.4,30.9-86.8,59.1
		c-20.9,27.6-33.3,62-33.3,99.3h-4.6v-669.1c0-46.7,18.9-88.9,49.5-119.5c30.6-30.6,72.8-49.5,119.5-49.5v4.6
		c-45.4,0-86.5,18.4-116.2,48.1c-29.7,29.7-48.1,70.8-48.1,116.2v629.8c5.5-23.1,15.8-44.4,29.7-62.7c22-29,53.2-50.7,89.2-60.7
		c7.3-2,14.8-3.6,22.5-4.6c7.5-1,15.2-1.6,23-1.6V1535.4z"/>
	<path class="st1" d="M2000,1146.4c-32,0-60.9-13-81.9-33.9c-21-21-33.9-49.9-33.9-81.9c0-23.5,7-45.3,19-63.6
		c12.4-18.8,30.1-33.8,51-42.8l1.8,4.2c-20.1,8.7-37.1,23.1-49,41.1c-11.5,17.5-18.2,38.5-18.2,61.1c0,30.7,12.4,58.5,32.6,78.6
		c20.1,20.1,47.9,32.6,78.6,32.6V1146.4z"/>
	<rect x="1833.3" y="1028.3" class="st1" width="166.7" height="4.6"/>
	<polygon class="st1" points="2000,1032.9 1955.1,1032.9 1952.8,1032.9 1952.8,1030.6 1952.8,870 1957.4,870 1957.4,1028.3 
		1997.7,1028.3 1997.7,863.9 2000,863.9 	"/>
	<polygon class="st1" points="2000,1032.9 1997.7,1032.9 1997.7,1030.6 1997.7,863.9 2000,863.9 	"/>
	<path class="st1" d="M1934.2,1121.4v171.5h-4.6v-171.5H1934.2L1934.2,1121.4z M1934.2,1383.7v163.9h-4.6v-163.9H1934.2
		L1934.2,1383.7z M1884.2,1577.7h4.6v-544.8h43.1v-4.6h-45.4h-2.3v2.3V1577.7z"/>
	<path class="st1" d="M1979.6,1141.8v105.6h-4.6v-105.6H1979.6L1979.6,1141.8z M1979.6,1429.1v105.5h-4.6v-105.5H1979.6
		L1979.6,1429.1z M1929.6,1547.6v-163.9h4.6v163.9H1929.6L1929.6,1547.6z M1929.6,1292.9v-171.5h4.6v171.5H1929.6L1929.6,1292.9z
		 M1931.9,1028.3h45.4v4.6h-45.4V1028.3z"/>
	<path class="st1" d="M2000,1028.3v4.6h-22.7v-4.6H2000L2000,1028.3z M1975,1534.6v-105.5h4.6v105.5H1975L1975,1534.6z M1975,1247.5
		v-105.6h4.6v105.6H1975z"/>
	<polygon class="st1" points="1884.8,1336.7 1998.4,1223.1 2000,1221.5 2000,1228 1889.7,1338.3 2000,1448.6 2000,1455.1 
		1998.4,1453.4 1884.8,1339.9 1883.2,1338.3 	"/>
	<path class="st1" d="M0,1530.7c46.7,0,88.9,18.9,119.5,49.5c30.6,30.6,49.5,72.8,49.5,119.5V2000h-4.6v-300.3
		c0-45.4-18.4-86.5-48.1-116.2c-29.7-29.7-70.8-48.1-116.2-48.1V1530.7z"/>
	<path class="st1" d="M45.8,1593.3c20.9,9,38.6,24,51,42.8c12,18.3,19,40.1,19,63.6c0,32-13,60.9-33.9,81.9
		c-21,21-49.9,33.9-81.9,33.9v-4.6c30.7,0,58.5-12.4,78.6-32.6c20.1-20.1,32.6-47.9,32.6-78.6c0-22.6-6.7-43.6-18.2-61.1
		c-11.9-18.1-28.9-32.5-49-41.1L45.8,1593.3z"/>
	<rect x="0" y="1697.4" class="st1" width="166.7" height="4.6"/>
	<polygon class="st1" points="2.3,1533.1 2.3,1699.7 2.3,1702 0,1702 0,1533.1 	"/>
	<polygon class="st1" points="47.2,1539.2 47.2,1699.7 47.2,1702 44.9,1702 0,1702 0,1533.1 2.3,1533.1 2.3,1697.4 42.6,1697.4 
		42.6,1539.2 	"/>
	<path class="st1" d="M25,1811v105.6h-4.6V1811H25L25,1811z M0,1702v-4.6h22.7v4.6H0z"/>
	<path class="st1" d="M70.4,1790.5V1962h-4.6v-171.5H70.4L70.4,1790.5z M20.4,1916.6V1811H25v105.6H20.4L20.4,1916.6z M22.7,1697.4
		h45.4v4.6H22.7V1697.4z"/>
	<path class="st1" d="M68.1,1697.4h45.4h2.3v2.3V2000h-4.6v-298H68.1V1697.4L68.1,1697.4z M65.8,1962h4.6v-171.5h-4.6V1962z"/>
	<polygon class="st1" points="0,1890.7 1.6,1892.3 109.3,2000 102.8,2000 0,1897.2 	"/>
	<path class="st1" d="M333.3,1530.7c46.7,0,88.9,18.9,119.5,49.5c30.6,30.6,49.5,72.8,49.5,119.5V2000h-4.6v-300.3
		c0-45.4-18.4-86.5-48.1-116.2c-29.7-29.7-70.8-48.1-116.2-48.1c-45.4,0-86.5,18.4-116.2,48.1c-29.7,29.7-48.1,70.8-48.1,116.2V2000
		h-4.6v-300.3c0-46.7,18.9-88.9,49.5-119.5C244.4,1549.7,286.7,1530.7,333.3,1530.7z"/>
	<path class="st1" d="M379.1,1593.3c20.9,9,38.6,24,51,42.8c12,18.3,19,40.1,19,63.6c0,32-13,60.9-33.9,81.9
		c-21,21-49.9,33.9-81.9,33.9c-32,0-60.9-13-81.9-33.9c-21-21-33.9-49.9-33.9-81.9c0-23.5,7-45.3,19-63.6
		c12.4-18.8,30.1-33.8,51-42.8l1.8,4.2c-20.1,8.7-37.1,23.1-49,41.1c-11.5,17.5-18.2,38.5-18.2,61.1c0,30.7,12.4,58.5,32.6,78.6
		c20.1,20.1,47.9,32.6,78.6,32.6s58.5-12.4,78.6-32.6c20.1-20.1,32.6-47.9,32.6-78.6c0-22.6-6.7-43.6-18.2-61.1
		c-11.9-18.1-28.9-32.5-49-41.1L379.1,1593.3z"/>
	<rect x="166.7" y="1697.4" class="st1" width="333.3" height="4.6"/>
	<polygon class="st1" points="335.6,1533.1 335.6,1699.7 335.6,1702 333.3,1702 288.5,1702 286.2,1702 286.2,1699.7 286.2,1539.2 
		290.8,1539.2 290.8,1697.4 331,1697.4 331,1533.1 	"/>
	<polygon class="st1" points="380.5,1539.2 380.5,1699.7 380.5,1702 378.2,1702 333.3,1702 331,1702 331,1699.7 331,1533.1 
		335.6,1533.1 335.6,1697.4 375.9,1697.4 375.9,1539.2 	"/>
	<path class="st1" d="M267.5,1790.5V1962h-4.6v-171.5H267.5L267.5,1790.5z M222.1,2000v-298h43.1v-4.6h-45.4h-2.3v2.3V2000H222.1z"
		/>
	<path class="st1" d="M312.9,1811v105.6h-4.6V1811H312.9L312.9,1811z M262.9,1962v-171.5h4.6V1962H262.9L262.9,1962z M265.2,1697.4
		h45.4v4.6h-45.4V1697.4z"/>
	<path class="st1" d="M358.3,1811v105.6h-4.6V1811H358.3L358.3,1811z M308.3,1916.6V1811h4.6v105.6H308.3L308.3,1916.6z
		 M310.6,1697.4H356v4.6h-45.4V1697.4z"/>
	<path class="st1" d="M403.8,1790.5V1962h-4.6v-171.5H403.8L403.8,1790.5z M353.7,1916.6V1811h4.6v105.6H353.7L353.7,1916.6z
		 M356,1697.4h45.4v4.6H356V1697.4z"/>
	<path class="st1" d="M401.4,1697.4h45.4h2.3v2.3V2000h-4.6v-298h-43.1V1697.4L401.4,1697.4z M399.1,1962h4.6v-171.5h-4.6V1962z"/>
	<polygon class="st1" points="224,2000 331.7,1892.3 333.3,1890.7 335,1892.3 442.7,2000 436.2,2000 333.3,1897.2 230.5,2000 	"/>
	<path class="st1" d="M666.7,1530.7c46.7,0,88.9,18.9,119.5,49.5c30.6,30.6,49.5,72.8,49.5,119.5V2000H831v-300.3
		c0-45.4-18.4-86.5-48.1-116.2c-29.7-29.7-70.8-48.1-116.2-48.1c-45.4,0-86.5,18.4-116.2,48.1c-29.7,29.7-48.1,70.8-48.1,116.2V2000
		h-4.6v-300.3c0-46.7,18.9-88.9,49.5-119.5C577.8,1549.7,620,1530.7,666.7,1530.7z"/>
	<path class="st1" d="M712.4,1593.3c20.9,9,38.6,24,51,42.8c12,18.3,19,40.1,19,63.6c0,32-13,60.9-33.9,81.9
		c-21,21-49.9,33.9-81.9,33.9c-32,0-60.9-13-81.9-33.9c-21-21-33.9-49.9-33.9-81.9c0-23.5,7-45.3,19-63.6
		c12.4-18.8,30.1-33.8,51-42.8l1.8,4.2c-20.1,8.7-37.1,23.1-49,41.1c-11.5,17.5-18.2,38.5-18.2,61.1c0,30.7,12.5,58.5,32.6,78.6
		c20.1,20.1,47.9,32.6,78.6,32.6s58.5-12.4,78.6-32.6c20.1-20.1,32.6-47.9,32.6-78.6c0-22.6-6.7-43.6-18.2-61.1
		c-11.9-18.1-28.9-32.5-49-41.1L712.4,1593.3z"/>
	<rect x="500" y="1697.4" class="st1" width="333.3" height="4.6"/>
	<polygon class="st1" points="669,1533.1 669,1699.7 669,1702 666.7,1702 621.8,1702 619.5,1702 619.5,1699.7 619.5,1539.2 
		624.1,1539.2 624.1,1697.4 664.4,1697.4 664.4,1533.1 	"/>
	<polygon class="st1" points="713.8,1539.2 713.8,1699.7 713.8,1702 711.5,1702 666.7,1702 664.4,1702 664.4,1699.7 664.4,1533.1 
		669,1533.1 669,1697.4 709.2,1697.4 709.2,1539.2 	"/>
	<path class="st1" d="M600.9,1790.5V1962h-4.6v-171.5H600.9L600.9,1790.5z M555.4,2000v-298h43.1v-4.6h-45.4h-2.3v2.3V2000H555.4z"
		/>
	<path class="st1" d="M646.3,1811v105.6h-4.6V1811H646.3L646.3,1811z M596.2,1962v-171.5h4.6V1962H596.2L596.2,1962z M598.6,1697.4
		H644v4.6h-45.4V1697.4z"/>
	<path class="st1" d="M691.7,1811v105.6h-4.6V1811H691.7L691.7,1811z M641.7,1916.6V1811h4.6v105.6H641.7L641.7,1916.6z M644,1697.4
		h45.4v4.6H644V1697.4z"/>
	<path class="st1" d="M737.1,1790.5V1962h-4.6v-171.5H737.1L737.1,1790.5z M687.1,1916.6V1811h4.6v105.6H687.1L687.1,1916.6z
		 M689.4,1697.4h45.4v4.6h-45.4V1697.4z"/>
	<path class="st1" d="M734.8,1697.4h45.4h2.3v2.3V2000h-4.6v-298h-43.1V1697.4L734.8,1697.4z M732.5,1962h4.6v-171.5h-4.6V1962z"/>
	<polygon class="st1" points="557.3,2000 665,1892.3 666.7,1890.7 668.3,1892.3 776,2000 769.5,2000 666.7,1897.2 563.8,2000 	"/>
	<path class="st1" d="M1000,1530.7c46.7,0,88.9,18.9,119.5,49.5c30.6,30.6,49.5,72.8,49.5,119.5V2000h-4.6v-300.3
		c0-45.4-18.4-86.5-48.1-116.2c-29.7-29.7-70.8-48.1-116.2-48.1s-86.5,18.4-116.2,48.1c-29.7,29.7-48.1,70.8-48.1,116.2V2000H831
		v-300.3c0-46.7,18.9-88.9,49.5-119.5C911.1,1549.7,953.3,1530.7,1000,1530.7z"/>
	<path class="st1" d="M1045.8,1593.3c20.9,9,38.6,24,51,42.8c12,18.3,19,40.1,19,63.6c0,32-13,60.9-33.9,81.9
		c-21,21-49.9,33.9-81.9,33.9c-32,0-60.9-13-81.9-33.9c-21-21-33.9-49.9-33.9-81.9c0-23.5,7-45.3,19-63.6
		c12.4-18.8,30.1-33.8,51-42.8l1.8,4.2c-20.1,8.7-37.1,23.1-49,41.1c-11.5,17.5-18.2,38.5-18.2,61.1c0,30.7,12.4,58.5,32.6,78.6
		c20.1,20.1,47.9,32.6,78.6,32.6s58.5-12.4,78.6-32.6c20.1-20.1,32.6-47.9,32.6-78.6c0-22.6-6.7-43.6-18.2-61.1
		c-11.9-18.1-28.9-32.5-49-41.1L1045.8,1593.3z"/>
	<rect x="833.3" y="1697.4" class="st1" width="333.3" height="4.6"/>
	<polygon class="st1" points="1002.3,1533.1 1002.3,1699.7 1002.3,1702 1000,1702 955.1,1702 952.8,1702 952.8,1699.7 952.8,1539.2 
		957.4,1539.2 957.4,1697.4 997.7,1697.4 997.7,1533.1 	"/>
	<polygon class="st1" points="1047.2,1539.2 1047.2,1699.7 1047.2,1702 1044.9,1702 1000,1702 997.7,1702 997.7,1699.7 
		997.7,1533.1 1002.3,1533.1 1002.3,1697.4 1042.6,1697.4 1042.6,1539.2 	"/>
	<path class="st1" d="M934.2,1790.5V1962h-4.6v-171.5H934.2L934.2,1790.5z M888.8,2000v-298h43.1v-4.6h-45.4h-2.3v2.3V2000H888.8z"
		/>
	<path class="st1" d="M979.6,1811v105.6H975V1811H979.6L979.6,1811z M929.6,1962v-171.5h4.6V1962H929.6L929.6,1962z M931.9,1697.4
		h45.4v4.6h-45.4V1697.4z"/>
	<path class="st1" d="M1025,1811v105.6h-4.6V1811H1025L1025,1811z M975,1916.6V1811h4.6v105.6H975L975,1916.6z M977.3,1697.4h45.4
		v4.6h-45.4V1697.4z"/>
	<path class="st1" d="M1070.4,1790.5V1962h-4.6v-171.5H1070.4L1070.4,1790.5z M1020.4,1916.6V1811h4.6v105.6H1020.4L1020.4,1916.6z
		 M1022.7,1697.4h45.4v4.6h-45.4V1697.4z"/>
	<path class="st1" d="M1068.1,1697.4h45.4h2.3v2.3V2000h-4.6v-298h-43.1V1697.4L1068.1,1697.4z M1065.8,1962h4.6v-171.5h-4.6V1962z"
		/>
	<polygon class="st1" points="890.7,2000 998.4,1892.3 1000,1890.7 1001.6,1892.3 1109.3,2000 1102.8,2000 1000,1897.2 897.2,2000 	
		"/>
	<path class="st1" d="M1333.3,1530.7c46.7,0,88.9,18.9,119.5,49.5c30.6,30.6,49.5,72.8,49.5,119.5V2000h-4.6v-300.3
		c0-45.4-18.4-86.5-48.1-116.2c-29.7-29.7-70.8-48.1-116.2-48.1c-45.4,0-86.5,18.4-116.2,48.1c-29.7,29.7-48.1,70.8-48.1,116.2V2000
		h-4.6v-300.3c0-46.7,18.9-88.9,49.5-119.5C1244.4,1549.7,1286.7,1530.7,1333.3,1530.7z"/>
	<path class="st1" d="M1379.1,1593.3c20.9,9,38.6,24,51,42.8c12,18.3,19,40.1,19,63.6c0,32-13,60.9-33.9,81.9
		c-21,21-49.9,33.9-81.9,33.9c-32,0-60.9-13-81.9-33.9c-21-21-33.9-49.9-33.9-81.9c0-23.5,7-45.3,19-63.6
		c12.4-18.8,30.1-33.8,51-42.8l1.8,4.2c-20.1,8.7-37.1,23.1-49,41.1c-11.5,17.5-18.2,38.5-18.2,61.1c0,30.7,12.4,58.5,32.6,78.6
		c20.1,20.1,47.9,32.6,78.6,32.6s58.5-12.4,78.6-32.6c20.1-20.1,32.6-47.9,32.6-78.6c0-22.6-6.7-43.6-18.2-61.1
		c-11.9-18.1-28.9-32.5-49-41.1L1379.1,1593.3z"/>
	<rect x="1166.7" y="1697.4" class="st1" width="333.3" height="4.6"/>
	<polygon class="st1" points="1335.6,1533.1 1335.6,1699.7 1335.6,1702 1333.3,1702 1288.5,1702 1286.2,1702 1286.2,1699.7 
		1286.2,1539.2 1290.8,1539.2 1290.8,1697.4 1331,1697.4 1331,1533.1 	"/>
	<polygon class="st1" points="1380.5,1539.2 1380.5,1699.7 1380.5,1702 1378.2,1702 1333.3,1702 1331,1702 1331,1699.7 1331,1533.1 
		1335.6,1533.1 1335.6,1697.4 1375.9,1697.4 1375.9,1539.2 	"/>
	<path class="st1" d="M1267.5,1790.5V1962h-4.6v-171.5H1267.5L1267.5,1790.5z M1222.1,2000v-298h43.1v-4.6h-45.4h-2.3v2.3V2000
		H1222.1z"/>
	<path class="st1" d="M1312.9,1811v105.6h-4.6V1811H1312.9L1312.9,1811z M1262.9,1962v-171.5h4.6V1962H1262.9L1262.9,1962z
		 M1265.2,1697.4h45.4v4.6h-45.4V1697.4z"/>
	<path class="st1" d="M1358.3,1811v105.6h-4.6V1811H1358.3L1358.3,1811z M1308.3,1916.6V1811h4.6v105.6H1308.3L1308.3,1916.6z
		 M1310.6,1697.4h45.4v4.6h-45.4V1697.4z"/>
	<path class="st1" d="M1403.8,1790.5V1962h-4.6v-171.5H1403.8L1403.8,1790.5z M1353.7,1916.6V1811h4.6v105.6H1353.7L1353.7,1916.6z
		 M1356,1697.4h45.4v4.6H1356V1697.4z"/>
	<path class="st1" d="M1401.4,1697.4h45.4h2.3v2.3V2000h-4.6v-298h-43.1V1697.4L1401.4,1697.4z M1399.1,1962h4.6v-171.5h-4.6V1962z"
		/>
	<polygon class="st1" points="1224,2000 1331.7,1892.3 1333.3,1890.7 1335,1892.3 1442.7,2000 1436.2,2000 1333.3,1897.2 
		1230.5,2000 	"/>
	<path class="st1" d="M1666.7,1530.7c46.7,0,88.9,18.9,119.5,49.5c30.6,30.6,49.5,72.8,49.5,119.5V2000h-4.6v-300.3
		c0-45.4-18.4-86.5-48.1-116.2c-29.7-29.7-70.8-48.1-116.2-48.1c-45.4,0-86.5,18.4-116.2,48.1c-29.7,29.7-48.1,70.8-48.1,116.2V2000
		h-4.6v-300.3c0-46.7,18.9-88.9,49.5-119.5C1577.8,1549.7,1620,1530.7,1666.7,1530.7z"/>
	<path class="st1" d="M1712.4,1593.3c20.9,9,38.6,24,51,42.8c12,18.3,19,40.1,19,63.6c0,32-13,60.9-33.9,81.9
		c-21,21-49.9,33.9-81.9,33.9c-32,0-60.9-13-81.9-33.9c-21-21-33.9-49.9-33.9-81.9c0-23.5,7-45.3,19-63.6
		c12.4-18.8,30.1-33.8,51-42.8l1.8,4.2c-20.1,8.7-37.1,23.1-49,41.1c-11.5,17.5-18.2,38.5-18.2,61.1c0,30.7,12.5,58.5,32.6,78.6
		c20.1,20.1,47.9,32.6,78.6,32.6c30.7,0,58.5-12.4,78.6-32.6c20.1-20.1,32.6-47.9,32.6-78.6c0-22.6-6.7-43.6-18.2-61.1
		c-11.9-18.1-28.9-32.5-49-41.1L1712.4,1593.3z"/>
	<rect x="1500" y="1697.4" class="st1" width="333.3" height="4.6"/>
	<polygon class="st1" points="1669,1533.1 1669,1699.7 1669,1702 1666.7,1702 1621.8,1702 1619.5,1702 1619.5,1699.7 1619.5,1539.2 
		1624.1,1539.2 1624.1,1697.4 1664.4,1697.4 1664.4,1533.1 	"/>
	<polygon class="st1" points="1713.8,1539.2 1713.8,1699.7 1713.8,1702 1711.5,1702 1666.7,1702 1664.4,1702 1664.4,1699.7 
		1664.4,1533.1 1669,1533.1 1669,1697.4 1709.2,1697.4 1709.2,1539.2 	"/>
	<path class="st1" d="M1600.9,1790.5V1962h-4.6v-171.5H1600.9L1600.9,1790.5z M1555.4,2000v-298h43.1v-4.6h-45.4h-2.3v2.3V2000
		H1555.4z"/>
	<path class="st1" d="M1646.3,1811v105.6h-4.6V1811H1646.3L1646.3,1811z M1596.2,1962v-171.5h4.6V1962H1596.2L1596.2,1962z
		 M1598.6,1697.4h45.4v4.6h-45.4V1697.4z"/>
	<path class="st1" d="M1691.7,1811v105.6h-4.6V1811H1691.7L1691.7,1811z M1641.7,1916.6V1811h4.6v105.6H1641.7L1641.7,1916.6z
		 M1644,1697.4h45.4v4.6H1644V1697.4z"/>
	<path class="st1" d="M1737.1,1790.5V1962h-4.6v-171.5H1737.1L1737.1,1790.5z M1687.1,1916.6V1811h4.6v105.6H1687.1L1687.1,1916.6z
		 M1689.4,1697.4h45.4v4.6h-45.4V1697.4z"/>
	<path class="st1" d="M1734.8,1697.4h45.4h2.3v2.3V2000h-4.6v-298h-43.1V1697.4L1734.8,1697.4z M1732.5,1962h4.6v-171.5h-4.6V1962z"
		/>
	<polygon class="st1" points="1557.3,2000 1665,1892.3 1666.7,1890.7 1668.3,1892.3 1776,2000 1769.5,2000 1666.7,1897.2 
		1563.8,2000 	"/>
	<path class="st1" d="M1831,2000v-300.3c0-46.7,18.9-88.9,49.5-119.5c30.6-30.6,72.8-49.5,119.5-49.5v4.6
		c-45.4,0-86.5,18.4-116.2,48.1c-29.7,29.7-48.1,70.8-48.1,116.2V2000H1831z"/>
	<path class="st1" d="M2000,1815.5c-32,0-60.9-13-81.9-33.9c-21-21-33.9-49.9-33.9-81.9c0-23.5,7-45.3,19-63.6
		c12.4-18.8,30.1-33.8,51-42.8l1.8,4.2c-20.1,8.7-37.1,23.1-49,41.1c-11.5,17.5-18.2,38.5-18.2,61.1c0,30.7,12.4,58.5,32.6,78.6
		c20.1,20.1,47.9,32.6,78.6,32.6V1815.5z"/>
	<rect x="1833.3" y="1697.4" class="st1" width="166.7" height="4.6"/>
	<polygon class="st1" points="2000,1702 1955.1,1702 1952.8,1702 1952.8,1699.7 1952.8,1539.2 1957.4,1539.2 1957.4,1697.4 
		1997.7,1697.4 1997.7,1533.1 2000,1533.1 	"/>
	<polygon class="st1" points="2000,1702 1997.7,1702 1997.7,1699.7 1997.7,1533.1 2000,1533.1 	"/>
	<path class="st1" d="M1934.2,1790.5V1962h-4.6v-171.5H1934.2L1934.2,1790.5z M1888.8,2000v-298h43.1v-4.6h-45.4h-2.3v2.3V2000
		H1888.8z"/>
	<path class="st1" d="M1979.6,1811v105.6h-4.6V1811H1979.6L1979.6,1811z M1929.6,1962v-171.5h4.6V1962H1929.6L1929.6,1962z
		 M1931.9,1697.4h45.4v4.6h-45.4V1697.4z"/>
	<path class="st1" d="M2000,1697.4v4.6h-22.7v-4.6H2000L2000,1697.4z M1975,1916.6V1811h4.6v105.6H1975z"/>
	<polygon class="st1" points="1890.7,2000 1998.4,1892.3 2000,1890.7 2000,1897.2 1897.2,2000 	"/>
</g>
</svg>
