<svg xmlns="http://www.w3.org/2000/svg" viewBox="0 0 64 64" role="img" aria-label="DS favicon">
  <defs>
    <linearGradient id="bg" x1="0" y1="0" x2="1" y2="1">
      <stop offset="0%" stop-color="#0b1a3f"/>
      <stop offset="55%" stop-color="#0a255e"/>
      <stop offset="100%" stop-color="#071329"/>
    </linearGradient>
    <linearGradient id="glow" x1="0" y1="0" x2="1" y2="1">
      <stop offset="0%" stop-color="#9cc2ff" stop-opacity="0.42"/>
      <stop offset="100%" stop-color="#4a80ff" stop-opacity="0"/>
    </linearGradient>
    <filter id="soft" x="-20%" y="-20%" width="140%" height="140%">
      <feGaussianBlur stdDeviation="1.2"/>
    </filter>
  </defs>

  <rect x="2" y="2" width="60" height="60" rx="14" fill="url(#bg)"/>
  <rect x="3" y="3" width="58" height="58" rx="13" fill="none" stroke="#7aa0ff" stroke-opacity="0.24"/>
  <ellipse cx="21" cy="14" rx="23" ry="14" fill="url(#glow)"/>

  <g stroke="#ecf3ff" stroke-width="5.4" stroke-linecap="round" stroke-linejoin="round" fill="none">
    <path d="M18 18v28"/>
    <path d="M18 18h11c9 0 14 5 14 14s-5 14-14 14H18"/>
    <path d="M49 21c-2.5-2.8-7.6-3.7-11-1.9-2.6 1.4-3.8 4.6-2.1 6.8 1.5 2 4.6 2.5 7.1 2.9 3.2.5 6.4 1.4 7.4 4.2 1.2 3.6-1.8 7-5.2 8.2-4.4 1.5-9.2.4-12-2.7"/>
  </g>

  <circle cx="51" cy="14" r="3.4" fill="#5c95ff" filter="url(#soft)"/>
</svg>
